P2
#origin 13 13
27 27 255
0 0 0 0 0 0 0 0 0 0 0 0 0 0 0 0 0 0 0 0 0 
0 0 0 0 0 0 0 0 0 0 0 0 0 0 0 0 0 0 0 40 0 
0 0 0 0 0 0 0 0 0 0 0 0 0 0 0 0 0 0 0 0 0 
40 40 40 40 40 40 40 40 40 0 0 0 0 0 0 0 0 0 0 0 0 
0 0 0 0 40 40 40 40 40 40 40 40 40 40 40 40 40 0 0 0 0 
0 0 0 0 0 0 0 0 0 40 40 40 40 40 40 40 40 40 40 40 40 
40 40 40 0 0 0 0 0 0 0 0 0 0 0 40 40 40 40 40 40 40 
40 40 40 40 40 40 40 40 40 40 0 0 0 0 0 0 0 0 0 40 40 
40 40 40 40 40 40 40 40 40 40 40 40 40 40 40 40 40 0 0 0 0 
0 0 0 40 40 40 40 40 40 40 40 40 40 40 40 40 40 40 40 40 40 
40 40 40 0 0 0 0 0 0 40 40 40 40 40 40 40 40 40 40 40 40 
40 40 40 40 40 40 40 40 40 0 0 0 0 0 40 40 40 40 40 40 40 
40 40 40 40 40 40 40 40 40 40 40 40 40 40 40 40 0 0 0 0 40 
40 40 40 40 40 40 40 40 40 40 40 40 40 40 40 40 40 40 40 40 40 
40 0 0 0 0 40 40 40 40 40 40 40 40 40 40 40 40 40 40 40 40 
40 40 40 40 40 40 40 0 0 0 0 40 40 40 40 40 40 40 40 40 40 
40 40 40 40 40 40 40 40 40 40 40 40 40 0 0 0 40 40 40 40 40 
40 40 40 40 40 40 40 40 40 40 40 40 40 40 40 40 40 40 40 40 0 
0 0 40 40 40 40 40 40 40 40 40 40 40 40 40 40 40 40 40 40 40 
40 40 40 40 0 0 0 0 40 40 40 40 40 40 40 40 40 40 40 40 40 
40 40 40 40 40 40 40 40 40 40 0 0 0 0 40 40 40 40 40 40 40 
40 40 40 40 40 40 40 40 40 40 40 40 40 40 40 40 0 0 0 0 40 
40 40 40 40 40 40 40 40 40 40 40 40 40 40 40 40 40 40 40 40 40 
40 0 0 0 0 0 40 40 40 40 40 40 40 40 40 40 40 40 40 40 40 
40 40 40 40 40 40 0 0 0 0 0 0 40 40 40 40 40 40 40 40 40 
40 40 40 40 40 40 40 40 40 40 40 40 0 0 0 0 0 0 0 40 40 
40 40 40 40 40 40 40 40 40 40 40 40 40 40 40 40 40 0 0 0 0 
0 0 0 0 0 40 40 40 40 40 40 40 40 40 40 40 40 40 40 40 40 
40 0 0 0 0 0 0 0 0 0 0 0 40 40 40 40 40 40 40 40 40 
40 40 40 40 40 40 0 0 0 0 0 0 0 0 0 0 0 0 0 40 40 
40 40 40 40 40 40 40 40 40 40 40 0 0 0 0 0 0 0 0 0 0 
0 0 0 0 0 0 40 40 40 40 40 40 40 40 40 0 0 0 0 0 0 
0 0 0 0 0 0 0 0 0 0 0 0 0 0 0 0 40 0 0 0 0 
0 0 0 0 0 0 0 0 0 0 0 0 0 0 0 0 0 0 0 0 0 
0 0 0 0 0 0 0 0 0 0 0 0 0 0 0 
