P2
#origin 12 12
25 25 255
0 0 0 0 0 0 0 0 0 0 0 0 0 0 0 0 0 0 0 0 0 
0 0 0 0 0 0 0 0 0 0 0 0 0 0 0 0 40 0 0 0 0 
0 0 0 0 0 0 0 0 0 0 0 0 0 0 0 0 40 40 40 40 40 
40 40 40 40 0 0 0 0 0 0 0 0 0 0 0 0 0 0 40 40 40 
40 40 40 40 40 40 40 40 40 40 0 0 0 0 0 0 0 0 0 0 0 
40 40 40 40 40 40 40 40 40 40 40 40 40 40 40 0 0 0 0 0 0 
0 0 0 40 40 40 40 40 40 40 40 40 40 40 40 40 40 40 40 40 0 
0 0 0 0 0 0 40 40 40 40 40 40 40 40 40 40 40 40 40 40 40 
40 40 40 40 0 0 0 0 0 0 40 40 40 40 40 40 40 40 40 40 40 
40 40 40 40 40 40 40 40 0 0 0 0 0 40 40 40 40 40 40 40 40 
40 40 40 40 40 40 40 40 40 40 40 40 40 0 0 0 0 40 40 40 40 
40 40 40 40 40 40 40 40 40 40 40 40 40 40 40 40 40 0 0 0 0 
40 40 40 40 40 40 40 40 40 40 40 40 40 40 40 40 40 40 40 40 40 
0 0 0 0 40 40 40 40 40 40 40 40 40 40 40 40 40 40 40 40 40 
40 40 40 40 0 0 0 40 40 40 40 40 40 40 40 40 40 40 40 40 40 
40 40 40 40 40 40 40 40 40 0 0 0 40 40 40 40 40 40 40 40 40 
40 40 40 40 40 40 40 40 40 40 40 40 0 0 0 0 40 40 40 40 40 
40 40 40 40 40 40 40 40 40 40 40 40 40 40 40 40 0 0 0 0 40 
40 40 40 40 40 40 40 40 40 40 40 40 40 40 40 40 40 40 40 40 0 
0 0 0 40 40 40 40 40 40 40 40 40 40 40 40 40 40 40 40 40 40 
40 40 40 0 0 0 0 0 40 40 40 40 40 40 40 40 40 40 40 40 40 
40 40 40 40 40 40 0 0 0 0 0 0 40 40 40 40 40 40 40 40 40 
40 40 40 40 40 40 40 40 40 40 0 0 0 0 0 0 0 40 40 40 40 
40 40 40 40 40 40 40 40 40 40 40 40 40 0 0 0 0 0 0 0 0 
0 40 40 40 40 40 40 40 40 40 40 40 40 40 40 40 0 0 0 0 0 
0 0 0 0 0 0 40 40 40 40 40 40 40 40 40 40 40 40 40 0 0 
0 0 0 0 0 0 0 0 0 0 0 0 40 40 40 40 40 40 40 40 40 
0 0 0 0 0 0 0 0 0 0 0 0 0 0 0 0 0 0 0 0 40 
0 0 0 0 0 0 0 0 0 0 0 0 0 0 0 0 0 0 0 0 0 
0 0 0 0 0 0 0 0 0 0 0 0 0 0 0 0 
