P2
#origin 5 5
11 11 255
0 0 0 0 0 0 0 0 0 0 0 
0 0 0 0 0 1 0 0 0 0 0 
0 0 0 1 1 1 1 1 0 0 0 
0 0 1 1 1 1 1 1 1 0 0 
0 0 1 1 1 1 1 1 1 0 0 
0 1 1 1 1 1 1 1 1 1 0 
0 0 1 1 1 1 1 1 1 0 0 
0 0 1 1 1 1 1 1 1 0 0 
0 0 0 1 1 1 1 1 0 0 0 
0 0 0 0 0 1 0 0 0 0 0 
0 0 0 0 0 0 0 0 0 0 0 

