P2
#origin 14 14
29 29 255
0 0 0 0 0 0 0 0 0 0 0 0 0 0 0 0 0 0 0 0 0 
0 0 0 0 0 0 0 0 0 0 0 0 0 0 0 0 0 0 0 0 0 
0 40 0 0 0 0 0 0 0 0 0 0 0 0 0 0 0 0 0 0 0 
0 0 0 0 40 40 40 40 40 40 40 40 40 40 40 0 0 0 0 0 0 
0 0 0 0 0 0 0 0 0 0 0 40 40 40 40 40 40 40 40 40 40 
40 40 40 0 0 0 0 0 0 0 0 0 0 0 0 0 0 40 40 40 40 
40 40 40 40 40 40 40 40 40 40 40 40 40 0 0 0 0 0 0 0 0 
0 0 0 40 40 40 40 40 40 40 40 40 40 40 40 40 40 40 40 40 40 
40 0 0 0 0 0 0 0 0 0 40 40 40 40 40 40 40 40 40 40 40 
40 40 40 40 40 40 40 40 40 40 0 0 0 0 0 0 0 0 40 40 40 
40 40 40 40 40 40 40 40 40 40 40 40 40 40 40 40 40 40 0 0 0 
0 0 0 0 40 40 40 40 40 40 40 40 40 40 40 40 40 40 40 40 40 
40 40 40 40 40 40 0 0 0 0 0 40 40 40 40 40 40 40 40 40 40 
40 40 40 40 40 40 40 40 40 40 40 40 40 40 40 0 0 0 0 40 40 
40 40 40 40 40 40 40 40 40 40 40 40 40 40 40 40 40 40 40 40 40 
40 40 0 0 0 0 40 40 40 40 40 40 40 40 40 40 40 40 40 40 40 
40 40 40 40 40 40 40 40 40 40 0 0 0 0 40 40 40 40 40 40 40 
40 40 40 40 40 40 40 40 40 40 40 40 40 40 40 40 40 40 0 0 0 
0 40 40 40 40 40 40 40 40 40 40 40 40 40 40 40 40 40 40 40 40 
40 40 40 40 40 0 0 0 40 40 40 40 40 40 40 40 40 40 40 40 40 
40 40 40 40 40 40 40 40 40 40 40 40 40 40 0 0 0 40 40 40 40 
40 40 40 40 40 40 40 40 40 40 40 40 40 40 40 40 40 40 40 40 40 
0 0 0 0 40 40 40 40 40 40 40 40 40 40 40 40 40 40 40 40 40 
40 40 40 40 40 40 40 40 0 0 0 0 40 40 40 40 40 40 40 40 40 
40 40 40 40 40 40 40 40 40 40 40 40 40 40 40 40 0 0 0 0 40 
40 40 40 40 40 40 40 40 40 40 40 40 40 40 40 40 40 40 40 40 40 
40 40 40 0 0 0 0 40 40 40 40 40 40 40 40 40 40 40 40 40 40 
40 40 40 40 40 40 40 40 40 40 40 0 0 0 0 0 40 40 40 40 40 
40 40 40 40 40 40 40 40 40 40 40 40 40 40 40 40 40 40 0 0 0 
0 0 0 0 40 40 40 40 40 40 40 40 40 40 40 40 40 40 40 40 40 
40 40 40 40 0 0 0 0 0 0 0 0 40 40 40 40 40 40 40 40 40 
40 40 40 40 40 40 40 40 40 40 40 40 0 0 0 0 0 0 0 0 0 
40 40 40 40 40 40 40 40 40 40 40 40 40 40 40 40 40 40 40 0 0 
0 0 0 0 0 0 0 0 0 40 40 40 40 40 40 40 40 40 40 40 40 
40 40 40 40 40 0 0 0 0 0 0 0 0 0 0 0 0 0 0 40 40 
40 40 40 40 40 40 40 40 40 40 40 0 0 0 0 0 0 0 0 0 0 
0 0 0 0 0 0 0 40 40 40 40 40 40 40 40 40 40 40 0 0 0 
0 0 0 0 0 0 0 0 0 0 0 0 0 0 0 0 0 0 0 0 40 
0 0 0 0 0 0 0 0 0 0 0 0 0 0 0 0 0 0 0 0 0 
0 0 0 0 0 0 0 0 0 0 0 0 0 0 0 0 0 0 0 0 0 
0 
