P2
# CREATOR: XV Version 3.00  Rev: 3/30/93
# CREATOR: XV Version 3.00  Rev: 3/30/93
123 92
255
 64  66  65  70  68  70  71  75  69  72  72  66  69  68  68  72  69 
 74  73  74  74  76  74  75  73  81  76  80  79  80  77  76  85  84 
 79  78  80  82  80  82  83  86  86  88  88  87  94  88  90  85  86 
 87  82  87  85  88  85  94  90  85  85  86  85  92  88  86  85  84 
 83  91  85  87  90  88  90  92  92  96  94  90  95  85  88  94  88 
 86  85  84  85  90  91  88  84  82  86  83  91  88  92  88  84 103 
 80  84  88  79  82  81  78  78  78  80  81  82  83  78  77  76  77 
 73  77  74  73  66  67  72  66  70  69  68  68  68  68  68  70  71 
 70  70  70  67  73  73  74  77  76  77  76  77  74  74  76  80  79 
 80  78  86  83  81  82  79  78  82  85  80  80  86  86  85  84  83 
 85  90  83  83  88  84  87  91  87  83  85  87  87  90  88  96  88 
 83  85  92  88  88  83  86  87  84  89  89  92  92  93  88  88  88 
 91  86  88  87  87  84  87  92  90  93  87  82  82  83  88  88  87 
 94  83  82  82  78  85  86  80  82  84  75  79  79  80  78  77  78 
 74  78  77  78  73  75  70  73  66  68  67  67  70  68  68  69  67 
 69  68  70  71  77  68  71  68  72  72  75  74  75  71  70  73  77 
 81  77  80  77  78  80  78  80  77  76  81  82  73  79  83  84  82 
 81  81  83  86  85  86  84  84  84  85  84  84  83  87  85  90  88 
 85  84  84  84  84  81  91  87  86  84  82  82  90  97  98  98  89 
 92  99  90  92  91  90  92  88  95  93  92  96  87  85  86  89  84 
 82  86  88  85  82  84  85  84  88  89  82  82  77  78  81  80  83 
 82  81  81  78  80  80  74  74  76  75  76  73  65  69  68  66  67 
 69  68  66  70  70  71  70  71  74  76  77  73  74  76  74  75  72 
 76  72  69  74  75  74  79  74  83  80  77  76  79  74  80  80  79 
 77  78  85  84  86  81  84  88  87  88  83  86  89  80  83  83  91 
 93  87  86  84  87  85  88  88  89  93  92  92  91 100  94  89  89 
 90  90  97  89  93  93  87  91  96  93  89  86  87  89  88  88  86 
 86  86  82  84  80  84  83  88  88  84  86  84  82  84  82  79  83 
 79  84  85  81  75  76  77  78  81  78  79  76  77  73  72  73  65 
 65  64  70  64  68  74  72  73  75  76  72  72  74  72  73  75  75 
 77  77  79  74  74  75  75  76  78  78  81  79  76  76  78  80  79 
 80  80  82  77  80  80  80  80  76  83  84  86  83  84  86  83  83 
 82  86  84  90  84  84  81  87  86  92  88  86  91  87  88  92  88 
 91  90  90  93  94  88  90  84  86  80  86  86  90  92  88  85  87 
 89  89  89  83  85  87  81  86  85  83  85  83  82  85  80  81  85 
 84  84  80  80  78  79  81  80  82  81  79  77  77  78  78  75  73 
 73  78  80  66  68  70  66  66  69  73  73  76  73  82  74  78  79 
 76  74  81  79  79  79  74  75  74  76  73  77  79  80  83  79  78 
 81  82  76  75  80  79  85  82  81  83  80  82  78  78  74  79  77 
 80  86  86  84  79  81  81  84  87  88  84  87  84  88  95  93  95 
 92  89  87  84  87  88  86  88  84  83  83  88  87  89  85  84  83 
 84  84  84  91  86  85  83  88  86  84  87  80  84  82  90  86  81 
 80  87  80  80  81  78  81  80  82  83  82  78  77  81  82  75  76 
 76  75  73  75  72  74  75  70  70  68  67  69  70  71  68  68  71 
 74  73  75  74  72  75  76  79  77  78  76  75  75  79  76  75  81 
 79  82  81  77  80  78  84  80  76  81  83  80  80  81  79  83  80 
 82  79  79  79  79  79  79  82  80  85  85  88  87  85  89  91  93 
 89  88  88  89  90  88  86  90  89  91  91  86  81  92  85  86  87 
 85  77  81  85  90  92  88  90  88  87  87  89  86  84  85  84  87 
 78  83  88  85  83  85  80  79  79  81  84  80  80  78  81  75  74 
 77  79  76  79  73  74  78  74  74  79  79  66  68  66  66  68  71 
 72  71  70  68  71  71  71  72  71  73  73  74  75  75  78  78  80 
 81  75  78  79  78  82  83  79  78  80  84  81  84  84  82  81  80 
 80  78  82  83  82  80  81  82  84  82  81  86  81  79  84  88  87 
 87  89  91  83  89  85  88  89  85  87  85  83  89  86  90  85  84 
 90  84  88  88  81  84  84  85  88  92  88  83  84  88  88  85  83 
 84  85  87  85  86  81  84  83  83  80  76  80  88  82  88  80  79 
 75  81  77  73  73  78  73  76  76  76  73  73  78  72  74  66  65 
 68  68  68  68  69  70  70  72  72  68  71  70  70  69  73  73  69 
 72  72  74  77  76  77  81  78  74  79  78  80  82  83  81  81  82 
 82  85  85  83  81  88  85  88  85  87  83  83  86  83  82  84  79 
 84  85  89  91  80  84  87  88  86  83  88  78  90  85  85  84  96 
 86  86  88  87  84  88  87  87  86  87  86  88  88  87  84  86  86 
 88  90  90  88  82  86  88  86  86  84  87  87  87  88  81  79  87 
 83  82  78  76  75  78  80  78  80  79  78  81  79  76  77  77  76 
 73  73  65  66  68  72  70  68  68  70  69  68  71  72  70  69  71 
 72  71  72  76  78  76  78  79  75  79  75  79  77  76  76  81  81 
 80  81  78  80  84  82  85  81  84  86  80  84  82  82  80  82  84 
 84  82  79  81  79  81  85  84  81  83  85  87  90  89  93  92  88 
 84  82  88  88  90  86  90  89  85  85  89  88  94  88  89  84  88 
 82  83  86  93  94  91  92  88  88  86  90  86  87  87  80  82  82 
 83  82  82  84  85  82  79  78  80  82  83  76  78  76  78  76  79 
 76  75  80  78  74  74  68  65  65  68  70  69  72  73  70  74  71 
 71  72  70  71  67  70  72  73  77  80  80  77  78  76  81  81  81 
 84  80  82  79  80  83  83  81  83  78  78  78  78  79  81  83  80 
 80  81  87  88  85  83  81  82  79  81  80  85  89  91  86  88  94 
 91  80  83  81  83  87  87  83  88  88  88  87  86  87  89  89  92 
 90  92  87  87  90  86  86  84  88  88  84  85  82  88  87  84  87 
 83  83  79  88  79  83  82  82  81  83  78  81  83  80  78  75  81 
 81  79  75  76  73  77  78  76  74  74  67  64  64  63  63  65  68 
 71  71  72  69  70  74  75  70  73  74  77  78  76  79  79  83  92 
124 167 186 222 184  99  84  84  84  86  82  80  80  80  80  81  85 
 82  78  80  79  80  77  80  83  82  81  86  86  83  92  86  84  85 
 85  85  89  87  85  86  87  88  87  88  88  84  90  88  86  87  84 
 87  85  90  85  92  88  86  94  88  88  83  87  88  84  86  86  85 
 85  86  85  87  85  85  81  83  84  88  82  86  84  81  85  83  85 
 88  80  77  81  79  76  73  77  77  71  74  74  74  75  67  64  66 
 66  66  66  73  73  71  69  69  72  72  72  73  74  72  78  77  79 
 92 134 227 241 241 241 232 233 223 220 230 241 155  83  85  83  79 
 80  78  83  83  82  82  83  80  82  81  81  86  83  83  80  83  86 
 84  83  88  82  79  81  86  83  84  90  85  89  88  85  82  81  86 
 85  89  85  85  87  85  89  92  92  91  89  89  87  87  83  87  84 
 86  82  82  86  86  88  83  81  86  86  83  86  78  85  86  83  83 
 86  85  84  86  77  80  77  77  76  76  76  73  78  77  74  74  75 
 74  68  68  68  67  68  69  69  73  70  68  68  71  72  74  74  71 
 70  74  86 138 209 241 241 213 188 173 171 191 188 181 182 208 220 
188 241  84  84  76  78  75  81  80  80  80  79  80  79  83  84  86 
 86  79  85  83  86  85  86  83  81  83  82  78  81  83  81  87  90 
 93  88  85  91  84  83  88  87  90  86  86  82  84  92  90  90  92 
 87  90  94  92  93  96  90  89  80  80  81  86  82  80  79  86  79 
 81  84  86  84  77  80  81  82  75  78  80  76  77  75  78  75  74 
 74  73  71  78  73  65  66  68  69  69  69  68  68  72  72  71  71 
 68  72  71  73  71  79 122 203 236 234 182 173 171 241 215 198 241 
193 173 180 182 222 193 241  79  79  77  84  80  80  83  78  80  80 
 78  80  84  83  83  82  80  85  82  83  87  89  85  82  82  82  81 
 84  85  81  86  89  85  89  88  86  84  83  88  88  91  91  92  91 
 99  92  92  94  96  89  90  94  96  88  84  92  84  85  88  88  82 
 90  84  82  81  84  83  86  79  76  80  78  84  76  76  79  80  79 
 75  79  77  72  81  74  73  73  72  62  67  67  66  68  67  69  70 
 69  68  68  71  70  73  78  78  84 138 190 205 182 176 159 163 159 
162 174 165 221 158 158 171 188 188 181 206 203  81  79  80  84  81 
 82  82  82  82  83  84  82  82  81  82  80  83  86  85  82  79  84 
 85  82  83  81  84  88  85  84  83  86  90  87  87  92  91  90  96 
 92  89  94 145 234 241 241 241 241 239 159 103  89  93  91  86  87 
 85  84  91  89  87  84  92  86  83  81  86  79  83  77  76  79  76 
 77  77  78  72  77  77  81  75  80  74  78  70  77  65  66  65  65 
 65  68  68  68  69  68  74  70  73  66  71  85 151 202 194 174 166 
172 164 171 184 184 184 192 193 192 174 176 178 174 178 195 203 166 
 87  87  88  83  82  82  80  84  81  80  79  81  83  89  93  88  87 
 88  86  87  86  81  79  84  86  86  86  87  83  88  87  88  87  84 
 86  86  89  99 112 206 241 241 241 241 241 241 241 241 241 241 241 
206 100  97  95  88  80  81  83  84  82  80  77  83  83  82  85  80 
 80  79  74  79  75  75  77  76  76  82  79  85  78  77  76  77  77 
 69  63  68  65  67  69  70  73  72  69  70  71  71  75  83 134 184 
186 165 170 176 190 176 168 180 180 187 181 180 203 176 172 171 182 
161 172 192 216 181  77  79  83  81  77  78  81  81  81  82  80  95 
158 241 241 241 186 101  89  92  87  81  78  80  79  81  87  88  85 
 81  86  85  85  86  88  98 170 241 241 241 241 241 241 241 241 241 
241 241 241 241 241 241 223  92  93  86  80  93  82  85  87  84  84 
 85  87  80  80  82  78  78  82  76  77  81  80  83  78  78  79  77 
 74  75  76  76  62  65  68  64  66  65  71  69  70  68  70  69  76 
 77 119 170 183 175 168 166 185 178 169 178 179 179 188 179 174 179 
177 170 173 166 173 158 197 198 207 164  75  82  85  80  82  80  84 
 90 138 230 221 180 236 241 182 147 241 241 219  96  84  83  80  81 
 81  88  90  86  86  91  87  86  91 128 196 235 241 241 215 210 212 
241 241 202 184 190 206 191 206 238 241 229 228 141  83  86  85  84 
 81  83  81  81  84  81  87  79  79  74  76  81  77  79  80  79  81 
 77  78  79  79  80  76  74  76  66  65  68  66  66  68  69  67  70 
 69  73  74  76  95 158 192 178 156 170 176 167 156 161 165 237 169 
176 184 174 192 190 176 192 177 177 161 177 163 190 189 112  82  86 
 83  86  88 118 198 179 117 109 102 159 134 138 164 128 144 149 176 
215  81  86  84  91  89  86  83  84  86  88  91 135 241 225 234 200 
180 182 206 241 236 241 197 213 165 206 169 183 179 203 212 241 214 
171  82  86  79  81  78  83  81  81  81  86  89  81  79  76  83  76 
 81  79  74  74  76  78  72  74  70  74  72  70  65  66  66  66  66 
 70  71  68  72  73  76  73  76 112 170 188 172 159 168 162 157 155 
154 164 241 187 177 189 178 186 241 193 189 171 172 209 177 166 188 
200 147  77  81  81  84 100 167 178 141 117 135 110 148 144 128 130 
146 163 131 133 143 164  83  90  85  88  85  86  83  85  95  96 215 
230 241 212 190 177 181 196 235 198 211 208 206 167 176 169 224 175 
187 207 209 234 217  88  86  86  81  82  83  83  79  78  79  81  79 
 80  79  76  78  77  78  78  75  75  76  74  71  72  72  74  70  68 
 68  68  68  74  69  70  68  69  70  73  74  82 136 187 179 152 160 
232 178 241 241 241 187 191 180 174 241 188 175 183 188 169 172 201 
188 185 177 201 207 182  77  84  84 104 170 145 114 102 149 126 122 
126 140 157 160 149 143 136 152 162 181 194  82  82  80  83  85  83 
 90  93 171 216 219 216 205 186 239 204 181 176 183 225 178 181 175 
196 183 183 196 241 241 225 189 229 238  86  85  79  78  84  76  79 
 77  82  78  82  80  80  79  76  76  77  80  74  74  76  77  75  73 
 75  75  75  63  70  68  69  67  70  72  73  69  72  71  70  87 152 
189 157 150 241 241 241 192 179 160 177 197 174 162 167 157 180 177 
178 153 166 198 195 199 172 189 213 198 110  76  93 173 241 134 126 
116 121 241 171 123 124 144 141 178 157 182 147 138 183 241 155  84 
 83  86  88  86  91 121 216 226 199 201 204 206 193 173 192 231 230 
209 205 176 165 197 200 186 219 208 241 220 213 188 220 241  80  85 
 80  77  77  76  78  76  79  79  82  84  84  81  81  81  75  73  78 
 79  75  74  73  74  74  73  61  65  62  68  68  69  70  72  72  70 
 67  73 111 171 179 177 220 173 194 199 185 184 160 177 190 199 195 
185 168 192 183 177 158 173 196 202 205 185 188 221 211 137  77 134 
148 122 124 113 158 241 183 134 164 224 146 164 148 172 135 159 134 
137 181 205 101  80  83  81  85  93 205 233 213 203 206 216 229 201 
206 206 241 241 237 225 202 162 184 183 186 207 218 225 232 241 205 
241 238 113  84  81  79  80  80  77  79  79  89  78  80  84  77  77 
 75  76  72  80  76  72  72  78  75  76  76  65  66  68  65  66  70 
 70  70  71  70  70  68 113 193 191 197 211 199 221 241 173 167 147 
177 196 205 194 184 171 171 194 160 154 194 204 225 194 190 198 224 
211 148  78 149 156 241 125 127 166 179 165 167 241 156 145 181 224 
154 124 128 134 146 166 241 191  83  84  82  83 117 209 231 211 236 
241 224 241 241 241 241 241 241 241 198 217 168 164 188 190 229 224 
230 230 241 239 183 241 208  79  83  77  80  80  74  74  82  75  81 
 85  82  80  77  77  80  76  81  76  76  76  77  80  75  77  63  63 
 64  64  64  68  66  69  71  69  70  70 107 185 186 153 190 241 241 
191 168 157 162 187 194 241 241 184 193 186 187 177 181 190 212 216 
227 194 166 214 228 145  89 138 145 136 133 136 128 120 135 153 154 
148 172 241 163 140 185 221 165 156 163 241 241  97  79  84  84 164 
217 192 199 194 203 241 241 241 241 241 241 241 241 224 204 174 241 
191 208 230 238 241 213 241 241 211 241 241  70  76  83  83  80  78 
 82  75  77  76  82  80  76  77  77  82  79  78  73  73  77  76  78 
 73  72  63  65  62  66  63  65  63  63  67  70  70  69 100 184 192 
152 167 195 229 241 208 188 166 188 211 167 181 195 241 241 241 241 
241 232 227 225 183 241 185 200 220 129 110 161 225 241 241 154 136 
126 137 137 133 143 192 153 164 187 241 196 173 202 241 241 241 141 
 84  84  89 203 241 209 190 184 180 176 183 191 167 172 165 188 199 
228 210 196 204 170 181 186 211 233 230 241 241 227 193 241 104  79 
 78  80  80  81  83  76  78  78  80  77  78  73  77  79  76  74  78 
 76  74  73  72  74  70  62  63  64  65  60  64  68  68  68  69  73 
 72  95 178 188 173 156 182 227 241 237 179 174 164 159 169 169 190 
216 218 211 209 224 208 204 194 176 183 181 204 202 118 120 222 236 
241 241 234 143 135 140 148 134 133 137 140 153 169 169 241 212 241 
241 241 241 126  80  86  88 194 241 204 203 202 186 191 175 192 170 
169 164 196 206 218 219 203 223 181 173 181 205 224 232 213 241 236 
176 241 130  77  82  80  87  79  80  81  78  80  83  73  77  77  78 
 79  77  74  77  79  76  70  73  73  70  61  63  67  66  66  67  68 
 65  68  63  65  68  80 159 207 174 147 164 179 218 241 216 185 196 
241 178 180 170 221 241 241 201 239 223 181 180 170 182 176 204 188 
 94 128 212 215 204 202 176 146 166 166 144 149 148 154 141 142 138 
169 186 189 189 215 241 241 163  77  85  86 204 222 184 241 241 203 
188 182 189 213 198 184 174 218 216 186 190 241 233 202 212 189 200 
191 212 241 241 179 219 144  78  79  83  82  76  77  75  77  80  76 
 78  79  79  80  83  77  80  77  70  76  72  74  69  79  69  66  66 
 64  65  66  65  68  66  63  68  70  68 127 181 179 163 188 187 199 
204 228 187 187 208 241 241 241 241 179 203 241 205 225 224 188 194 
198 194 189 170  61 124 196 204 177 144 180 153 143 121 140 241 164 
140 142 161 160 162 173 192 171 226 241 241 139  63  81  83 229 241 
197 241 241 201 201 190 191 196 184 191 212 217 214 201 241 241 241 
182 241 191 200 204 187 187 241 181 206 101  79  83  76  75  76  77 
 78  83  76  78  75  80  74  77  75  78  73  69  76  75  79  77  76 
 73  63  62  64  63  66  65  65  63  65  62  62  62  66  87 159 179 
163 166 241 228 204 241 241 233 241 241 241 241 241 182 172 184 199 
241 241 221 241 241 183 196 137  45 102 156 186 241 168 148 170 142 
145 151 155 148 158 210 177 158 141 146 166 165 169 182 182 105  64 
 84  86 229 241 177 241 241 211 192 190 185 190 193 190 196 199 169 
170 241 241 241 186 241 241 218 196 202 229 207 209 207  77  75  82 
 75  78  78  80  79  78  76  78  75  75  73  75  78  73  74  70  69 
 74  77  70  68  70  61  64  60  58  60  60  63  65  64  67  68  66 
 67  65 120 174 164 151 158 161 200 241 241 241 235 178 151 154 159 
158 156 176 170 170 172 194 174 179 195 206  66  48  84 129 241 234 
176 133 126 118 117 140 145 158 143 156 152 156 184 170 152 139 157 
241 241  64  71  81  86 184 241 165 241 241 202 205 196 211 186 196 
241 205 241 228 183 241 241 223 213 233 241 198 181 202 226 198 215 
213  60  77  76  72  83  77  83  79  79  76  75  71  75  73  82  77 
 74  72  71  76  75  76  71  73  71  62  59  63  64  63  64  64  62 
 61  61  68  73  68  66  69 145 174 166 167 173 157 165 162 155 156 
156 159 183 168 160 160 162 158 165 175 191 196 188 185 103  42  60 
 71 133 146 169 152 127 136 130 127 114 115 116 150 146 169 149 152 
170 157 136 142 138 147  44  77  86  83 120 198 178 205 234 218 220 
205 190 173 179 207 223 241 241 241 241 241 212 212 241 241 186 180 
197 181 197 220 213  50  78  78  74  76  78  77  77  79  74  77  75 
 76  78  76  73  75  76  74  69  75  70  70  73  75  59  61  62  60 
 64  65  64  64  66  64  66  69  67  66  58 114 172 175 161 158 161 
162 159 161 160 164 157 152 158 163 164 169 179 165 163 181 178 185 
170  65  45  67  70 106 136 157 141 157 124 127 126 124 125 126 128 
146 143 160 153 146 173 137 132 141 106  47  75  83  86  96 189 216 
181 230 231 197 204 215 180 194 241 234 241 241 218 241 241 241 204 
241 226 194 186 194 194 188 179 223  49  82  79  78  79  75  78  80 
 77  73  75  75  81  77  79  78  74  72  71  70  76  74  73  73  76 
 62  61  60  61  63  63  62  63  64  63  66  64  67  64  69  52 123 
170 175 169 145 151 151 151 165 156 171 181 173 170 194 188 160 156 
184 183 196 180  85  42  58  76  73  68 139 124 159 141 159 120 134 
134 135 130 138 137 122 119 150 148 176 144 135 143  46  60  81  85 
 88  80 194 229 162 215 241 206 202 194 207 191 193 235 203 241 188 
241 241 226 241 241 191 180 186 192 190 226 213  68  60  79  80  78 
 75  78  75  74  81  74  73  78  78  79  76  79  73  76  72  71  73 
 72  72  75  71  60  66  63  62  64  65  65  64  66  68  66  66  65 
 65  68  65  44 105 162 176 162 167 140 138 155 225 194 218 213 160 
146 144 174 168 180 180 169  69  39  53  76  78  78  75  51 145 122 
146 141 105 157 175 147 143 142 132 128 231 150 116 109 126 154  57 
 44  69  77  80  78  84  74 187 238 167 214 232 191 193 214 204 191 
175 180 241 241 233 176 241 241 241 207 241 192 184 196 208 144  45 
 69  87  83  79  78  75  75  79  77  80  82  88  77  80  73  74  71 
 71  73  77  75  76  70  75  77  62  62  61  64  63  65  69  66  65 
 65  68  66  65  67  65  68  65  44  62 156 192 173 158 159 159 153 
148 147 159 167 174 181 186 193 194 241  54  41  52  72  77  74  79 
 78  74  48 148 138 101 101 128 112 125 140 129 129 112 105 125 108 
130 168  56  41  62  74  78  77  80  86  83 124 188 202 179 201 241 
187 179 186 188 170 175 180 241 241 235 211 241 241 241 189 179 200 
210 181  49  54  77  78  73  78  73  73  77  74  79  84  80  79  76 
 78  72  74  71  73  73  71  73  75  70  72  70  59  63  62  58  63 
 64  60  64  65  66  63  63  61  67  67  69  67  68  50  41  72 162 
241 225 201 191 207 192 203 216 219 202 228 162  71  40  41  54  70 
 78  78  82  84  91  95  85  48  84 176 119 204 123 122 114 111 105 
135 105 142 205 124  45  41  65  82  76  77  83  81  82  80  57 172 
187 207 186 213 192 191 213 192 176 174 160 235 241 241 241 241 241 
205 207 207 218 190  58  48  72  75  76  81  80  83  84  73  78  77 
 80  81  72  74  76  72  72  71  75  71  73  73  71  70  70  73  62 
 61  58  58  61  62  62  66  68  65  62  62  65  66  64  66  66  66 
 68  60  43  39  43  80 146 160 241 241 241 175 182  78  40  40  41 
 46  62  73  76  88 111 158 186 178 175 160 174 210 190 103 163 219 
236 241 241 241 241 211 102  45  41  45  69  73  75  76  77  80  79 
 80  83  81  50 155 199 202 205 214 219 203 178 173 190 153 162 191 
165 179 181 216 241 241 237 206  56  46  64  77  78  76  79  79  72 
 76  80  79  73  76  74  77  78  75  74  75  75  73  70  74  73  69 
 72  74  70  60  61  62  61  65  67  65  64  66  64  62  63  64  64 
 61  65  65  69  70  72  69  58  44  40  38  38  39  40  40  41  40 
 38  41  46  59  71  75  80 110 153 141 121 120 125 110 118 122 123 
126 140 166  88  40  44  45  44  40  40  42  43  53  74  80  83  79 
 81  76  78  80  83  85  80  78  51  88 225 192 196 220 228 241 234 
241 216 237 241 241 241 241 241 241 241 156  46  43  63  83  81  84 
 83  80  78  71  74  79  80  81  81  72  75  72  75  72  77  74  73 
 69  72  69  71  75  69  70  63  66  64  60  63  61  62  65  62  66 
 71  68  65  66  67  68  66  70  70  71  68  69  62  53  42  41  40 
 40  40  41  42  45  51  62  74  76  77  97 145 133 117 116 123 132 
111 120 122 125 126 129 136 171  62  40  41  39  40  41  45  55  70 
 73  76  84  81  87  82  79  83  89  85  82  88  66  45 126 231 205 
214 230 231 241 241 241 241 241 241 241 241 241 241 207  58  42  51 
 68  80  78  81  80  77  77  76  78  78  81  78  74  74  74  75  79 
 73  75  74  71  68  75  70  75  70  73  71  62  64  61  59  58  59 
 63  64  66  66  62  65  70  71  69  65  70  76  75  73  73  70  71 
 70  70  69  67  68  65  68  68  66  69  73  73  72 104 139 118 123 
121 124 122 126 122 120 129 125 125 128 130 132 139  92  60  62  65 
 70  77  78  76  80  76  78  81  85  93 138 241 241 241 241 159  94 
 74  54  48 107 228 237 241 225 225 232 241 241 241 241 241 231  68 
 43  44  54  78  81  81  79  80  73  80  78  76  82  80  82  77  84 
 78  80  77  78  71  74  75  69  71  70  71  70  73  72  69  61  63 
 60  60  62  61  62  61  62  63  64  64  64  66  70  73  82 109 133 
135 138 100  78  75  72  71  73  68  70  74  75  75  73  73  74  97 
130 121 133 125 120 127 129 127 128 120 127 131 135 133 128 133 142 
133  90  79  79  81  81  75  77  77  83  85 105 157 241 235 216 206 
213 203 241 241 222 179  60  45  45  46  75 143 185 229 228 241 115 
 61  46  42  44  49  65  78  75  80  77  77  80  76  82  88  85  81 
 79  84  84  84  81  77  78  73  72  72  72  71  72  72  72  72  74 
 75  70  61  60  56  59  62  66  65  62  62  65  66  68  70  72 100 
159 184 182 221 241 227 188 162 156 111  76  75  70  71  70  71  70 
 70  72  86 134 152 138 134 147 157 154 138 124 128 134 126 131 126 
122 134 142 140 141 137  77  80  76  78  75  76  81  89 120 183 217 
175 241 179 176 182 172 193 172 184 241 184 117  64  51  45  42  42 
 42  43  43  42  45  48  55  70  76  81  77  79  80  82  87  87  89 
 88  89  88  90  89  90  88  90  82  82  80  72  70  69  74  74  73 
 74  73  73  75  73  70  57  58  59  58  56  64  65  60  61  61  63 
 71  89 144 197 210 201 201 182 194 222 228 219 180 197 153  92  69 
 68  68  71  73  74  74 113 140 137 134 146 156 156 152 132 133 149 
145 124 127 123 123 128 132 156 158 147 119  77  78  75  73  79  83 
130 193 210 208 174 215 195 204 216 214 193 189 188 172 194 165 155 
 78  82  70  63  60  61  65  69  71  75  81  83  83  81  84  82  83 
 86  92 100 241 241 241 241 241 241 239 173 125  94  87  87  80  80 
 74  74  77  72  69  70  72  71  69  70  59  60  60  58  57  58  57 
 58  60  64  66 100 174 213 161 137 156 161 157 167 157 149 151 167 
177 169 166 104  66  70  65  68  68  75 139 151 152 139 152 135 141 
153 145 146 147 132 133 127 128 126 128 124 132 145 160 135  77  77 
 76  77  81 124 195 190 194 185 188 194 201 213 221 228 206 241 211 
196 236 214 166 145  80  79  78  75  78  75  77  78  80  76  78  82 
 87  94  93  89 126 241 241 241 241 241 238 241 241 241 203 202 241 
241 186  79  83  84  78  72  68  71  73  73  72  71  71  61  60  60 
 59  56  57  60  60  62  65  98 165 179 146 136 148 162 184 189 169 
145 155 166 164 161 154 159 162 103  74  69  70  67  90 165 157 143 
141 133 130 126 168 150 137 148 132 121 127 139 129 126 126 137 154 
179 138  85  70  74  75  97 172 188 206 211 198 189 196 204 199 204 
194 198 220 232 214 230 195 192 143  95  76  78  78  80  75  80  78 
 77  80  80  88  85  85 118 241 241 235 241 241 241 241 241 241 241 
241 241 228 241 241 232 241 160  82  80  75  73  70  73  70  68  70 
 69  61  58  57  58  60  56  57  60  61  65 115 164 147 126 141 142 
139 184 209 209 184 167 180 171 173 189 153 168 139  66  70  72  68 
 96 145 167 152 144 124 127 122 134 135 148 151 125 114 124 135 126 
124 128 131 177 241 149  92  72  77  75 114 179 189 202 208 213 202 
205 200 195 194 204 218 241 241 241 241 241 190 200 142  73  77  77 
 75  75  76  74  74  86  85  84  89 100 222 241 231 236 241 241 241 
241 241 241 241 241 241 241 241 241 241 237 241 124  81  81  76  77 
 73  69  69  73  69  57  57  58  62  60  57  61  62  64  84 152 163 
168 144 146 143 133 145 158 172 186 198 173 167 156 162 147 146 167 
101  64  67  70  98 149 143 134 130 124 121 120 126 140 163 152 130 
118 114 126 133 122 128 132 194 214 167 101  68  80  86 156 199 204 
208 206 211 204 190 225 241 241 195 207 229 241 241 241 192 185 197 
139  76  73  79  73  76  74  76  81  79  85  86 176 241 212 234 241 
241 241 241 241 241 241 241 241 241 241 241 241 241 241 241 241 230 
224  74  81  82  73  72  71  68  68  58  58  61  59  62  60  60  60 
 68 119 152 142 142 166 162 138 131 150 167 172 162 175 193 162 168 
162 160 152 157 160  68  65  69  97 151 139 122 131 120 110 117 116 
130 149 151 157 148 113 118 120 122 132 145 178 166 161 105  62  73 
 94 194 200 209 206 241 241 241 241 241 208 212 241 241 237 210 170 
195 172 239 179 131  94  76  74  79  82  77  77  79  82  87 155 239 
229 239 241 241 241 241 225 235 241 241 241 241 238 241 241 241 237 
237 241 241 241 225 241  89  83  74  71  68  62  71  57  57  58  60 
 59  60  61  62  81 150 214 212 178 176 170 140 140 151 157 165 151 
149 161 169 174 159 178 190 163 190  80  65  66  86 131 146 127 132 
129 123 111 121 119 133 139 148 142 123 109 118 126 145 177 153 152 
157  87  57  70 100 241 191 191 190 206 182 189 179 184 222 241 195 
197 241 241 241 241 192 205 196 241 126  74  79  78  78  79  74  78 
 82 129 205 215 239 241 241 241 241 241 241 241 241 241 241 241 241 
241 241 241 241 241 233 241 241 241 230 207  84  73  66  68  70  69 
 56  55  57  58  57  58  59  61  89 165 147 158 161 172 179 241 178 
165 176 213 216 163 175 196 212 184 150 138 196 206 100  65  66  70 
122 129 129 122 126 123 120 119 120 124 139 153 149 137 134 130 137 
134 131 136 132 151  60  61  73 106 241 203 185 188 203 223 189 199 
224 213 183 192 216 236 241 199 199 191 195 181 241 139  73  74  80 
 78  79  77  85 103 241 201 241 241 236 235 241 241 241 241 241 241 
241 241 241 241 241 241 241 241 241 241 241 241 241 241 223 176  67 
 68  72  75  70  60  59  57  59  57  57  61  62  97 184 145 159 157 
138 166 160 160 202 217 167 174 181 224 233 241 241 216 164 158 195 
115  62  66  66 107 132 127 122 124 120 132 112 119 119 129 152 150 
144 136 126 128 128 128 140 188 130  45  69  72  99 241 189 192 200 
196 201 213 241 235 180 206 232 224 219 192 235 204 230 241 226 241 
114  72  79  76  74  78  81  86 201 183 238 241 229 225 241 241 241 
241 241 241 241 241 241 241 241 241 241 241 241 241 238 222 239 241 
237 241 198 123  76  74  72  67  57  58  60  57  56  60  62  60  98 
182 149 188 158 138 144 148 148 157 158 158 160 220 241 241 241 241 
198 168 156 194 107  61  67  66  89 131 127 120 119 130 124 114 116 
117 129 158 145 147 140 124 118 125 128 136 143 101  41  74  76  94 
241 182 190 199 216 216 241 241 228 206 241 234 223 205 228 241 241 
241 241 206 235 107  72  79  75  79  79  86  93 224 210 241 241 222 
229 241 241 241 241 237 241 241 241 241 241 241 241 241 241 241 241 
241 220 238 241 229 241 221 204  79  73  70  64  59  60  62  65  62 
 61  60  61  80 188 145 149 159 186 202 160 162 167 174 184 211 241 
241 190 171 241 241 227 180 210  95  59  61  67  62 113 129 124 114 
121 118 118 114 114 119 144 161 132 126 126 117 132 139 133 136  49 
 54  74  74  77 209 221 198 241 209 189 223 241 241 241 229 216 201 
222 225 211 224 217 228 226 191  68  70  75  77  75  79  81 167 166 
241 241 241 228 241 241 241 241 241 241 241 241 241 241 241 241 241 
241 241 241 241 235 241 238 241 241 241 241 206  82  71  72  64  55 
 58  55  58  61  62  57  59  65 168 159 154 152 132 145 177 170 175 
180 241 241 241 148 193 182 151 172 179 173 177  60  60  66  68  64 
 52 121 111 117 115 123 112 116 119 144 129 152 130 116 108 106 106 
117 132  63  42  65  68  70  71 136 241 200 241 241 224 185 208 241 
241 241 241 241 241 211 231 209 218 231 241 169  47  73  75  75  78 
 79  88 206 241 241 241 241 241 241 241 241 241 241 241 241 241 241 
241 241 241 241 241 241 241 241 241 238 241 241 241 233 241 230 200 
 74  73  71  57  57  55  58  59  60  62  62  59 102 169 143 170 143 
217 241 187 165 223 241 150 134 146 152 158 156 163 180 188 132  46 
 62  62  63  65  62  46 106 118 118 121 116 119 126 122 121 125 116 
121 120 103 111 132  65  38  54  74  70  66  69  63 198 234 205 206 
241 241 241 208 241 241 241 241 215 219 241 241 224 239 228  75  56 
 78  75  73  74  76 115 214 241 241 241 241 241 241 241 241 241 241 
241 241 241 241 241 241 241 241 241 241 241 241 241 241 241 241 241 
239 241 239 195  68  68  64  54  57  56  58  58  60  63  58  57  62 
129 148 151 153 174 148 144 200 168 143 138 134 147 158 165 164 174 
181 170  68  52  60  62  62  61  64  58  41  86 132 119 114 121 127 
124 117 114 115 101 107 127 119  47  42  58  74  74  76  75  79  77 
 82 221 231 212 216 241 241 241 205 241 241 241 230 229 228 241 236 
226 128  45  70  71  73  70  73  75 149 207 241 241 241 241 241 241 
241 241 241 241 241 241 241 241 241 241 241 241 241 241 241 241 241 
241 241 241 239 241 241 241 207  87  66  68  57  57  58  59  62  59 
 57  56  60  58  72 160 159 168 159 155 170 146 133 148 144 154 164 
186 179 169 200 183  95  42  60  64  65  67  66  61  67  62  42  39 
 72 135 130 138 126 131 131 135 145 106  51  42  97 234 241 241 241 
239 136  80  72  67  77 205 239 237 241 241 241 241 241 190 235 241 
237 226 230 213 150  43  61  74  74  72  75  71  79 158 201 241 241 
241 233 241 241 241 241 241 241 241 241 241 241 241 241 241 241 241 
241 241 241 228 241 241 241 241 241 241 241 227 112  64  66  54  56 
 56  54  57  56  56  55  55  57  54  73 164 161 159 146 139 138 142 
146 154 168 171 197 214 231 186 112  41  56  65  67  64  59  64  60 
 62  64  65  54  40  36  37  41  43  47  45  40  39  49 114 186 143 
118 111 106 113 169 123 156 170 113  61  51 178 229 241 241 241 241 
241 241 241 229 228 218 198 113  43  57  74  74  69  74  76  74  78 
165 205 241 241 241 241 241 241 241 241 241 241 241 241 241 241 241 
241 241 241 241 241 241 241 241 241 241 241 241 241 238 241 203 106 
 63  64  51  55  53  57  56  57  57  57  60  59  59  47 111 174 153 
145 149 145 149 157 162 178 170 207 241 201 179  56  43  60  62  69 
 63  61  62  64  69  64  63  68  55  42  38  36  37  36  37  38  44 
110 170 141 128 120 115 119 124 157 123 116 151 182  99  50  68 202 
236 228 241 241 241 241 241 236 241 223 118  41  46  69  69  71  72 
 73  73  73  73 156 201 241 241 241 241 241 241 241 241 241 241 241 
241 241 241 241 241 241 241 241 241 241 241 241 241 241 241 241 241 
236 241 197 108  62  62  54  53  53  55  56  61  61  62  65  61  58 
 58  46  65 152 178 175 201 241 241 241 222 210 198 222 109  35  41 
 58  61  62  63  61  60  67  67  62  62  65  61  59  62  62  55  51 
 48  51  68 136 148 128 168 162 151 139 145 171 179 173 150 147 141 
161 132  55  42  46 103 180 241 241 241 241 165  82  42  42  54  72 
 75  74  76  75  73  74  71  73 126 187 241 241 241 241 241 241 241 
241 241 241 241 241 241 241 241 241 241 241 241 241 241 241 241 241 
241 241 241 241 232 241 192  96  55  60  55  57  55  54  55  56  57 
 55  57  56  58  58  60  49  38  44 101 231 241 241 241 241 133  56 
 36  36  49  62  63  60  60  61  63  63  63  63  59  60  60  62  62 
 62  66  65  67  65  83 143 202 146 112 128 131 183 158 151 179 201 
179 168 164 176 165 177 132  66  58  44  42  41  41  42  41  42  45 
 54  66  72  78  80  80  78  74  77  72  74  72 110 162 241 241 241 
241 241 241 241 241 241 241 241 241 241 241 241 241 230 235 241 241 
241 241 241 241 241 241 227 226 239 234 177  52  57  62  55  53  54 
 54  57  55  55  56  59  60  58  58  58  59  56  49  40  35  35  37 
 36  34  36  38  47  59  64  66  65  64  63  64  66  64  68  66  65 
 60  66  61  63  62  62  63  68  73 132 174 131 134 128 136 139 118 
162 152 187 193 180 178 164 187 187 179 168 123  72  68  68  67  64 
 61  65  68  73  77  78  84  96 129 133 105  87  78  78  75  76  85 
148 238 241 241 241 241 241 241 241 241 241 241 241 241 241 241 230 
241 241 241 241 241 241 241 241 241 241 226 225 241 204 182  42  58 
 61  53  53  52  53  52  54  54  56  59  57  56  59  55  59  57  57 
 56  58  57  55  55  56  62  58  58  61  60  59  58  62  67  64  65 
 68  67  65  62  63  59  63  64  64  63  64  64 105 138 151 129 136 
149 181 156 129 121 158 182 164 179 184 199 201 179 182 174 137  87 
 67  67  73  69  73  69  77  79 110 220 241 241 241 241 241 241 241 
223 112  78  80 176 241 241 241 241 241 241 241 241 241 241 241 241 
241 241 241 222 241 241 241 241 241 241 241 241 241 241 241 232 241 
192 181  41  59  61  52  53  52  54  55  54  55  52  54  55  53  56 
 57  55  57  57  56  57  62  62  60  60  60  65  56  60  61  62  62 
 65  67  69  71  70  69  71  71  72  65  67  64  65  63  65  74 119 
132 138 166 166 210 156 162 154 128 118 150 180 226 241 241 241 231 
177 165 204 145  69  72  70  70  73  77  96 225 241 241 241 241 241 
230 218 241 241 241 241 241 106 117 173 241 241 241 241 229 241 241 
241 241 241 241 241 241 241 202 235 241 241 241 241 241 241 241 241 
241 241 241 241 197  94  45  66  67  55  56  55  52  53  52  55  55 
 56  55  56  56  56  58  60  61  58  60  59  61  62  59  60  59  59 
 60  63  64  64  64  69  70  72  69  69  69  70  72  68  64  68  67 
 65  68  81 106 118 137 158 142 136 179 156 143 127 119 132 239 241 
241 241 241 241 193 161 180 144  71  74  71  74  72  84 183 241 241 
241 241 241 241 241 185 164 241 241 241 236 190  79 175 241 241 241 
241 230 241 241 241 241 241 241 241 241 241 241 229 241 241 241 241 
241 241 241 241 217 241 241 228 215  68  48  62  60  53  54  54  55 
 56  52  51  55  54  55  57  58  56  56  57  59  57  58  62  58  62 
 59  61  63  63  58  63  67  80 132 219 241 241 241 241 241 144  85 
 68  71  69  67  68  65  98 127 142 169 164 172 220 156 147 139 121 
128 116 123 144 144 136 149 136 133 192 180 143  73  69  72  80  88 
241 241 241 152 206 241 238 241 241 196 164 241 241 241 241 241 197 
136 176 241 241 241 241 241 241 241 241 241 241 241 241 241 241 241 
241 241 241 241 241 239 241 228 241 241 218 227 134  39  57  60  59 
 52  50  49  52  52  54  52  52  53  57  55  57  55  58  56  55  54 
 56  59  60  60  61  59  61  62  64  80 150 226 241 241 241 241 241 
241 241 170 142 149  85  65  66  64  66 108 132 132 147 184 167 132 
114  98 110 142 131 131 130 164 159 142 135 150 137 161 209 222  95 
 65  75  85 220 241 223 241 241 150 171 241 222 157 194 241 206 241 
241 241 241 241 180 180 171 241 241 241 241 241 241 241 241 241 241 
228 233 206 234 211 234 241 241 230 218 241 241 241 225 216 183  38 
 44  58  63  62  53  54  54  53  51  51  52  55  55  54  53  53  55 
 56  57  57  54  56  58  60  58  58  58  59  66 112 235 241 241 241 
224 241 241 241 241 241 234 188 141 136 113  64  67  66 111 129 119 
130 141 145 155 184 142 144 130 106 124 119 112 146 135 139 141 164 
128 152 162 101  65  73 139 241 241 241 211 241 241 170 205 186 241 
241 241 223 241 241 241 241 241 241 156 184 180 241 241 241 241 241 
241 241 241 241 222 241 232 241 241 219 238 231 237 201 236 241 230 
222 206  41  39  54  61  65  65  52  50  50  51  54  56  55  54  53 
 52  51  53  56  55  56  54  53  56  56  59  59  59  60  67 134 241 
241 241 241 241 241 241 241 241 241 215 241 241 162 150 157 125  70 
 63 100 126 121 136 217 241 187 154 137 129 106 123 125 120 116 147 
118 127 162 180 131 172 203  89  63  83 227 241 241 241 241 233 170 
216 241 206 241 241 241 186 211 241 241 241 241 241 169  86 205 177 
241 241 241 241 241 241 233 237 241 241 241 241 241 197 226 241 241 
241 241 231 241 209  37  36  49  60  59  59  61  51  51  52  51  55 
 52  53  53  52  50  53  53  54  52  53  51  53  57  56  58  60  64 
 65 122 229 215 241 241 222 201 224 228 237 241 241 241 235 241 156 
168 170 175 114  63  89 131 164 192 234 223 160 126 115 107 101 162 
128 125 124 151 124 141 178 164 167 169 149  64  70 128 241 241 241 
241 241 241 241 194 180 235 224 183 197 190 217 241 241 241 241 241 
241 150  41 141 196 203 241 241 241 239 237 233 225 225 219 228 223 
241 241 241 241 224 219 241 170  40  39  48  56  59  60  58  58  52 
 53  52  54  54  52  53  53  54  53  53  56  54  54  54  51  53  56 
 58  57  60  62  84 222 219 218 185 196 199 193 190 193 210 241 241 
224 202 165 150 155 167 141 132  83  66 129 155 185 158 190 191 125 
112 109 112 140 131 152 159 128 141 161 156 137 141 128 149  43  72 
198 241 241 241 241 241 241 241 241 227 189 183 200 241 214 241 241 
241 241 241 239 241 176  57  39  47 221 241 215 205 221 241 234 231 
230 241 241 241 241 232 241 241 241 241  65  39  38  48  57  59  56 
 57  59  59  52  50  52  51  53  53  51  50  54  52  53  54  56  53 
 53  52  56  57  55  58  58  62 115 222 205 191 187 195 205 202 198 
189 205 241 241 215 186 143 150 153 141 144 134  95  56 119 136 130 
139 165 186 121 110 105 108 109 110 136 164 130 146 159 152 132 113 
115 127  42  73 228 241 241 241 241 241 241 241 241 241 241 217 225 
241 241 241 241 241 241 241 241 241 184  64  49  39  47 241 241 223 
214 241 230 237 236 230 241 241 241 241 241 241 241 158  37  40  43 
 56  58  58  60  58  60  62  50  51  50  52  52  53  55  55  51  55 
 55  55  56  55  56  59  58  58  58  55  59  69 163 219 219 198 208 
218 200 241 241 222 190 194 186 184 174 170 149 162 167 183 218 132 
 65  87 122 119 120 118 167 116  99 102 100 104 106 114 107 109 131 
128 147 116 127 160  63  46  71 241 241 241 241 241 241 233 202 212 
222 225 235 232 241 241 241 241 241 241 241 241 241 234  64  65  52 
 41  40  41  66 241 241 237 241 241 241 241 241 241 238 227  46  41 
 39  39  45  58  63  61  58  60  59  60  59  52  48  54  53  52  53 
 54  51  50  52  54  54  53  54  54  54  54  55  57  58  60  83 197 
241 241 230 218 241 241 180 176 159 157 134 163 227 234 155 241 241 
176 199 221 179  79  54 104 123 131 115 119 107 100  98 100 105 100 
 90  93  97  90 100 109 140 142 128  37  61  71 241 241 241 241 241 
241 234 219 220 230 241 228 238 241 237 190 209 241 241 239 215 220 
231  63  65  67  63  52  41  38  38  38  41  45  57  47  44  41  41 
 42  39  40  39  43  57  59  59  59  60  58  60  58  61  59  52  53 
 52  53  52  54  53  51  51  51  54  56  55  50  53  56  54  55  52 
 54  56  96 218 241 218 234 163 176 196 163 200 208 198 221 156 167 
230 241 186 223 241 203 181 167  88  53  46 113 128 137 115  98 100 
 92  90  96  99  90  91  87  99 115 113 138 126  37  47  68  70 212 
241 241 241 241 241 241 241 229 241 241 223 241 241 216 219 186 197 
190 188 181 241 196  56  62  58  58  62  61  57  52  42  41  41  40 
 38  38  41  41  42  45  52  60  61  63  61  60  61  61  63  58  62 
 62  59  49  48  50  50  50  52  53  51  55  56  53  53  52  53  51 
 53  53  53  55  52  54  92 241 241 176 174 151 217 221 178 225 196 
241 241 209 241 220 213 241 241 237 165 161 153  97  50  56  40  98 
126 110 108 104 102  95  97  98  93  94  99 113 153 159 119  36  42 
 60  62  67 148 241 241 241 241 241 241 241 241 241 221 216 204 239 
212 211 205 188 170 168 189 216 182  43  59  63  61  61  60  65  65 
 64  63  61  56  56  60  60  63  62  62  60  62  60  59  58  58  60 
 61  60  60  58  57  58  48  49  49  49  55  52  52  54  55  57  55 
 56  55  53  51  55  52  55  55  55  56  88 241 241 169 175 140 195 
241 241 241 241 241 221 241 241 200 198 193 241 241 241 182 170 100 
 47  57  59  41  48 130 141 120 104 102 100  96 102 106 133 193 171 
 45  36  40  60  63  64  63  89 241 241 241 241 241 241 241 241 241 
228 241 241 220 220 241 241 234 190 165 211 174 137  39  65  60  60 
 63  63  62  58  64  63  64  68  65  64  66  63  65  61  57  60  59 
 60  58  63  60  63  61  56  56  59  57  49  51  51  54  56  54  51 
 52  54  55  57  54  54  56  55  56  56  55  56  55  54  82 233 241 
180 168 157 241 241 220 186 207 200 241 241 212 206 173 192 197 241 
241 177 175  95  44  58  60  51  37  48 125 165 150 137 143 144 153 
169 205 163  48  33  38  53  64  63  67  63  65 241 241 241 241 241 
241 241 241 241 241 241 229 198 241 239 241 225 183 178 220 193  86 
 42  65  61  61  62  61  61  58  63  63  61  61  61  62  62  63  60 
 59  62  60  57  58  58  64  61  59  58  59  61  60  60  51  50  50 
 52  51  51  51  52  50  51  52  50  53  53  52  51  55  55  53  54 
 56  69 192 241 171 133 185 214 206 234 219 201 241 225 144 171 187 
135 154 155 174 166 156 199  74  44  56  58  57  54  44  36  36  40 
 52  69  68  48  37  36  36  36  43  58  64  63  64  62  60  61  99 
231 237 236 234 213 202 199 205 191 241 201 241 241 241 241 200 164 
198 182 143  35  51  58  58  59  60  59  62  60  62  62  60  61  60 
 63  63  62  63  57  58  58  60  58  59  60  56  60  56  56  60  57 
 54  48  49  50  51  50  52  52  50  48  50  51  49  50  50  54  52 
 54  54  55  54  56  56 133 230 223 139 174 196 241 241 241 241 231 
204 224 241 165 136 133 151 149 149 183 173  44  48  58  57  57  58 
 61  56  46  39  37  35  35  35  37  40  45  56  61  60  63  60  66 
 62  64  67  58 128 201 206 202 209 222 187 180 171 210 241 241 241 
241 241 165 176 189 187  41  39  61  56  58  59  61  62  62  59  58 
 60  62  58  58  63  63  64  66  64  62  63  61  61  62  62  60  56 
 59  59  56  60  56  48  49  50  49  50  52  52  52  49  49  54  51 
 51  54  52  53  52  51  51  54  56  54  73 162 229 167 128 118 158 
164 231 241 179 151 144 241 215 177 152 129 142 140 162  90  34  54 
 58  59  58  57  57  61  59  56  56  53  53  55  55  55  58  60  61 
 60  62  60  62  60  62  64  63  48 130 178 206 205 196 186 158 143 
152 191 241 241 225 183 157 168 178  46  38  60  64  63  60  62  61 
 60  59  57  59  61  65  66  62  60  62  62  62  61  58  56  59  56 
 58  60  58  54  56  56  55  51  50  50  52  50  50  49  54  53  50 
 52  52  52  51  50  53  49  51  54  57  55  52  55  55  53  94 160 
180 150 148 155 185 170 140 125 117 120 202 155 116 106 102 108 123 
132  41  40  57  60  56  59  61  60  61  58  58  56  60  59  59  54 
 58  61  60  61  60  60  58  58  62  63  62  61  58  43  87 161 166 
154 145 164 203 129 132 144 127 172 168 200 125  36  38  54  60  61 
 61  63  64  62  61  65  62  62  61  60  61  62  60  64  61  62  61 
 62  60  60  57  57  55  56  53  55  53  54  55  52  49  49  49  49 
 47  48  49  49  51  51  50  51  51  52  54  53  55  52  52  55  53 
 56  54  48  97 163 153 128 130 130 129 110 107 104  97 124 142  94 
 92  98 108 140  51  34  55  56  58  58  57  57  59  61  58  57  55 
 59  61  61  57  59  61  61  64  62  58  57  58  61  60  60  60  62 
 58  43  40  92 160 183 149 132 146 156 241 183 205 156  45  36  38 
 56  62  63  63  66  64  59  63  64  62  62  58  62  60  58  58  61 
 62  59  62  59  57  56  58  56  55  57  57  56  53  55  56  56  56 
 47  48  48  47  48  48  48  49  48  48  49  49  47  50  50  50  51 
 52  54  54  54  56  56  53  44  92 132 136 136 120 104  92  92  90 
 86 122 143  98 106 121 144  46  33  45  58  58  54  58  59  59  62 
 61  55  57  57  57  59  64  60  60  58  59  62  61  60  61  59  56 
 58  58  59  60  61  62  52  39  36  42  62 102 132 116  68  43  36 
 37  38  48  62  60  60  58  61  60  62  64  60  58  58  60  62  59 
 58  59  57  58  60  62  60  58  57  60  58  56  56  55  53  55  58 
 56  55  55  58  49  46  46  50  49  48  50  50  49  49  52  50  47 
 47  47  48  51  52  50  52  53  53  54  53  44  53 112 136 130 109 
101 102 108 108  94 106 175 110 123 151  71  31  36  52  56  60  56 
 57  58  57  58  56  56  58  60  61  60  64  62  62  61  59  60  61 
 59  61  59  59  59  59  63  60  62  60  60  50  41  38  37  35  37 
 37  36  38  36  38  47  58  61  60  58  59  59  60  61  59  59  60 
 59  60  63  58  61  56  57  58  59  60  57  57  58  58  56  56  56 
 55  56  55  56  53  55  55  57  47  47  48  47  48  49  50  50  50 
 48  50  50  49  48  48  46  48  51  50  52  51  52  54  56  55  46 
 38  74 138 148 127 113 110 106 108 133 176 188 105  37  31  36  50 
 56  56  57  56  52  55  59  56  56  57  61  62  58  55  57  60  61 
 60  57  57  59  60  61  59  59  57  60  59  57  58  60  61  62  61 
 57  49  44  44  42  45  46  51  59  61  60  60  59  59  62  63  65 
 62  60  58  58  60  60  58  60  59  57  57  56  60  60  58  57  56 
 56  54  56  54  60  58  56  56  57  53  53  52  47  48  46  45  48 
 47  46  49  47  49  48  48  47  47  47  48  49  50  50  50  49  50 
 52  52  55  51  45  37  34  42  73 146 209 187 132  76  42  33  31 
 34  38  50  55  56  59  56  56  56  55  55  56  59  58  56  56  56 
 57  56  57  57  60  56  56  57  57  59  58  56  56  57  62  58  57 
 60  62  61  62  63  64  58  60  59  58  58  61  60  60  60  57  59 
 57  58  63  55  60  61  63  62  62  61  62  60  56  59  58  57  59 
 56  56  56  55  57  53  55  56  57  56  59  56  57  59  56  56  46 
 48  45  48  48  49  49  46  47  48  48  49  49  51  49  48  49  49 
 49  51  49  51  55  52  53  52  53  52  45  38  34  32  34  33  31 
 30  31  34  37  50  53  56  54  53  55  53  54  55  56  58  60  57 
 59  57  59  60  60  57  59  60  58  58  58  58  58  61  58  57  58 
 56  60  55  60  57  57  60  60  60  58  62  57  58  60  61  56  59 
 58  61  58  59  58  61  60  61  63  63  58  59  56  57  63  62  60 
 56  58  56  58  54  55  51  56  56  55  55  56  56  56  55  55  56 
 54  52  53  45  46  47  45  46  49  47  47  48  47  48  47  47  48 
 44  48  47  50  48  49  50  50  51  54  53  52  52  54  53  53  49 
 49  44  42  44  45  47  52  55  55  55  54  56  55  55  52  54  59 
 56  56  56  51  54  57  56  57  60  58  61  60  56  57  58  58  57 
 58  59  63  62  57  60  57  60  54  57  58  60  62  61  60  57  61 
 60  62  59  58  59  59  58  59  57  59  61  59  61  58  63  60  60 
 58  58  56  56  54  58  56  57  57  56  55  56  57  56  56  56  60 
 55  55  52  52  53  56  52  49  47  45  45  46  47  48  48  49  47 
 48  48  48  47  47  48  50  52  50  51  48  48  52  52  50  50  49 
 52  52  54  51  51  51  53  52  50  52  53  56  56  55  56  53  55 
 54  56  57  60  54  57  56  52  53  57  57  57  59  58  57  58  57 
 56  57  60  61  56  56  57  59  62  58  57  55  58  58  58  59  62 
 60  62  58  60  58  60  59  58  57  58  58  57  58  56  55  60  60 
 58  58  59  55  56  56  54  55  54  57  55  54  54  54  55  55  57 
 58  58  58  55  56  56  54  54  52  54  54 