P1
#origin 1 0
3 16
1 1 1
0 0 0
0 0 0
0 0 0
1 1 1
0 0 0
0 0 0
0 0 0
1 1 1
0 0 0
0 0 0
1 1 1
0 0 0
0 0 0
0 0 0
1 1 1
