P2
# CREATOR: XV Version 3.00  Rev: 3/30/93
# origin0 0
46 26
255
 63  65  47  24  27  41  61  17  77  67  11  72  65  61  35  43  66 
 48   0  47  25   4   9   2  34  27  31  50  10  24  20  63  31  24 
  1  30  33  20   9  37  15  48  62  15  59  43  36  41  68  18  47 
 10  44  12  59  49  45  37   5  34  18  35   9  52  30  13  22  26 
 41   0  31  35  12  45  23   8   0  33   0  45  34  15  67  18  50 
 53  58  21  58  49  85  45  24  48  26  61  46  38  20  12  27  28 
 27  49  27  25  43  16  30  23  23  45  31  49  62   6  11   0  28 
 46  42  28  39  37  24  54  46  46  42   0  43  46  23  20  32  31 
 24  28  50  33  15  36  43   9  52  10  19  62   8  23  25   7  14 
 29  19  18  45  34  16  14  36  26  55  18   5  46  54  24  22  21 
 26  13   0  36  28  33  20   7  25  31  14  25  45  84  30  25  33 
 14  18  21  50  36  22  31  50  33  15  43  22  35  59  19  38  29 
 28  37  28   0  22  48  17  11  23  28  35   0  19  25  56  17  16 
 22  13  30  32  41  32  38  60  48   0   0   1  22  30  24  48  35 
 51   0  15  41  61  27   8  57   4  23  13  36  35   0  55   0  45 
 22  39  35   0  23  39  41  64  25  71  38  29  59   3  26   0  33 
 22   7  31  33  56   0  39  66   0  15  18  27   9  26  51   0  66 
 38   0  54  57  81  23  42  20  18  11  45  32   8  19   2   0  19 
 17  50  29  38  43   9  29  36  51  32  32  67  42  33  29  11  45 
 51   5  34  50   0  29  26  40   0   0  19   0  58  37  27   0  30 
 21  32   0   0  46  15   9  45  39  46  32  50   9  31  16  21   6 
 30  22  35  50   0  70   9  34  29  23  18   0  44  16  43   0  29 
 46  17  17  30  34  14  17   0  19  32  40  64  19  23  36  31  12 
 30  36   9   0  17   0  25   8   0   3  45   9  35  41  33  27  47 
 14  35   1  27  23  58  20  24   0   3   0  14   0  16  51  28  29 
 18   0  12  61  44  36  20   7  50  22   0  73  16  15  24  30  54 
 20  40  29  25  21  41  11  59  39  15  20  37  43  56  44  31  31 
 14  24  14   8  12  39  17  50  24   0  34   2  19  48  50  23  32 
 33  12  35  65  33  63  42  37  28  20  48   0  11  49  31  89  51 
 46  26  78  45  25  36  16  51  26  95  36  26  29  10   3  37  34 
 27  59  25  27  26   7  42   9  27   2  55  22  28  17  16   5   0 
 24  31  31   4  45  59  22  65  32   6  39  46  29   7  39  57  58 
 38  50  59  21  56  27  38   0  11  36  43   0  28   0   0  23   0 
 28  50   4  29  31  66  24  51  41   6  15   6  23  71  46   9  17 
 39  66   8  46  45  28   3  25   9  48   9  31  19  23  14  81  36 
 22   4  27   7  55  16  33  39  11  37  21   0  59  28  30  32  48 
 52  17   1  39  34  22   6  19  22  46   6  37  12  37  52  29   0 
 16  52  18  16   4  31  21  81  28  34  24  24  37  55  56  23  47 
  1  15   8  36  30  48  27  39  39  27  23  21  32  42   0  55  42 
 30  37   9  54  41  48  15  24  35  51  25  56  65  47   7  35  43 
 47  66  70  19   9  33  23  28   1  47  28  40  69  48  50  42  14 
 29  41   0  26  38   0  26  48  52  34   0 100  25  37  42  53  48 
 36  14  46  69  28  58  49  48  27  10   0   0  43  15  41  75  11 
 36   0  47  59  37  57  44  19  28  57  25   0  63  77  27  56  67 
 42  44  58  66  12  42  30  20  46  42  44  72  51  17  49  65  18 
 69  51  58  35  39  30  28  49   5   0  20  16  56  20  82  23  41 
  0  31  35  10  36  51  35  23  56  42  19  13  25  25  59  13  61 
 40  31  44  37   1  54   1   5  16  26  15  63  18  55  40  34  44 
 68  52  34  56  33  20  36  46  19  38   0  48  59  27  38  18  32 
 31  42  20   5  42  43  53   3  31  22   0  57  41  59  58  32  54 
 16  59   0  13  19   0  17  50  28  36  20  13  30  69   6  52  15 
 70  16 106   4  59   0  38  44  56  23  79  74  25  31  25  37  42 
 31  13  37  30  14  47   4  17  14   0  36  47  38  12  15   7  15 
 33  49   8  24  58   0  13  39  48  32  33  18  31  17  30  12  41 
 20   0  32  52   0  32  33  46  68  45  22  45   0  48  19  39  49 
 33  40  61  32   9  33  23   6  55  15  33   0  26   0  25  35  61 
 32  41  58  40  40  57  51  35  53  16  36  35  32   5  39  53  34 
 36  53  22  17  34   0  19  26  46   0  53  67  14  44  28   0   5 
 29  65  40  47  33  44  30  11  28  33  23  36  21  52  44  54   0 
 28  10  23  40  22  23  53  61  42  60  30   4 103  32  44  15  89 
 48  46  39  35  52  61  87   9  40  39  46  63   4  19   3  23  64 
 62  57  45  25  10  51  43   7  13  65  30  20  25  11  57  46  15 
 69  41  59  36  11  50   7  12  14  57   9  43  22  71   0  14   7 
 48  42   5  53   4  68  19  38   7  18  45  52  11  46   6  57  17 
 55  29  67  50  10   7  53  44  43  35  18  64  83  28   0   0  16 
 24  40  57  46  35  45  45  46  28  20  60  18  58  20  33  46   5 
 23  55  49  80  25  24  74  38  39  35   0   6  53  44  49  20   0 
 54  32  39  33  41  20  51  22  66  33  36  56  14  28  36   5  60 
 58  40  19   1  46  26  22  65   0  33  43  18  32  30   0  26  33 
 41  33  34  51  47  34   0  34  30  31  10  10  35  35  35  17  75 
 45  27  23  54  36  44 