P2
# CREATOR: XV Version 3.00  Rev: 3/30/93
# origin0 0
49 23
255
181 155 178 205 201 177 132 179 197 163 199 175 188 184 210 170 174 
192 193 163 179 192 154 191 148 168 188 188 184 199 198 175 170 163 
184 188 182 239 143 178 189 192 208 192 175 151 188 170 242 197 165 
191 178 159 192 217 202 222 188 215 148 165 176 186 216 173 197 223 
175 216 215 167 168 193 165 147 157 164 176 152 165 168 206 158 193 
157 202 185 175 176 165 190 196 201 190 181 165 192 214 202 202 220 
216 171 152 173 203 151 190 194 210 195 198 206 250 202 169 220 158 
183 164 187 192 202 188 175 218 184 221 184 177 214 179 211 188 172 
217 210 175 172 203 227 230 221 208 195 219 191 173 229 254 183 198 
181 197 186 175 187 168 165 194 191 184 192 199 189 183 189 194 159 
155 184 188 173 204 172 202 162 232 180 188 159 190 163 177 227 185 
227 158 186 190 222 196 190 192 170 206 175 221 194 181 192 184 176 
173 189 196 174 164 209 182 193 166 183 186 204 196 212 202 185 176 
203 196 159 171 174 170 154 214 204 167 179 195 211 194 211 185 191 
200 173 176 197 205 190 167 203 159 183 152 209 192 175 178 245 185 
208 179 140 198 222 196 194 189 196 179 165 182 201 190 191 220 190 
215 160 174 182 188 181 183 219 192 201 199 209 175 202 214 213 162 
176 175 173 205 188 187 193 186 218 199 205 187 194 197 182 214 177 
172 182 190 167 215 183 192 203 206 208 165 168 202 187 197 185 159 
176 161 184 201 182 203 210 219 193 205 194 191 211 176 188 222 215 
179 193 205 169 207 208 174 177 184 206 208 193 230 210 209 200 171 
179 217 196 198 206 167 192 140 196 187 191 178 165 168 173 156 189 
209 164 155 220 171 192 206 166 226 165 166 203 163 212 192 192 199 
227 198 177 196 197 170 183 193 239 188 211 205 195 192 190 181 150 
218 164 149 187 197 195 206 195 203 132 168 181 214 170 181 156 178 
154 189 206 175 180 193 215 175 194 199 190 227 146 190 207 200 167 
187 177 181 200 185 197 206 200 208 177 221 162 204 226 194 229 190 
192 160 170 164 205 174 215 195 211 202 180 195 188 195 230 181 191 
173 176 178 179 166 191 204 175 213 206 169 160 197 191 162 197 230 
171 181 203 199 188 183 181 194 221 209 183 201 188 201 210 191 212 
178 191 186 183 183 176 190 184 238 201 204 176 199 198 226 146 193 
169 203 184 195 189 182 200 176 223 189 181 189 176 208 162 170 186 
192 179 218 136 205 238 171 211 194 188 175 191 216 213 203 202 178 
185 211 178 178 181 169 190 202 179 201 199 248 173 202 209 208 161 
189 195 193 178 216 184 179 190 166 200 213 180 207 198 180 207 193 
189 176 161 181 168 212 181 187 202 181 213 165 190 181 164 175 225 
178 200 176 158 167 167 184 182 170 176 181 186 203 217 210 200 205 
204 186 179 189 186 193 177 188 184 194 174 224 232 197 180 165 198 
165 223 231 185 199 183 196 183 132 178 162 200 177 177 172 157 210 
210 183 209 220 184 209 197 184 152 197 196 195 199 187 166 153 199 
217 189 154 191 193 216 174 169 178 168 183 167 167 174 188 176 230 
180 172 159 190 212 185 184 163 184 190 200 166 204 201 176 187 201 
168 230 194 197 206 175 171 180 182 176 209 212 184 187 186 183 198 
182 206 174 191 190 216 162 181 165 185 192 209 214 202 214 209 153 
196 168 183 181 229 191 171 189 185 185 185 192 167 143 184 152 196 
191 157 210 210 178 169 179 217 194 198 211 172 218 163 203 176 190 
177 163 195 200 190 192 160 205 181 203 204 184 188 215 200 205 209 
185 184 176 233 194 161 209 201 185 157 172 169 171 171 167 212 202 
196 230 230 199 186 198 178 167 181 194 147 207 158 165 168 209 168 
178 191 176 183 197 203 193 189 205 186 192 216 205 201 139 193 167 
198 187 142 166 198 196 207 189 205 191 181 171 177 192 196 183 201 
202 155 212 175 183 192 169 161 148 190 183 213 175 157 186 207 166 
172 191 206 200 175 223 202 191 214 191 172 176 208 191 145 172 212 
176 169 194 181 193 163 179 231 154 201 233 174 164 192 228 175 191 
196 184 189 162 180 202 165 198 184 183 205 167 173 190 188 192 183 
214 177 153 170 215 199 226 169 199 181 174 186 198 213 176 200 206 
206 207 185 204 177 167 168 200 223 164 182 175 175 145 170 180 212 
155 204 171 204 169 166 202 181 239 181 192 222 193 186 204 196 224 
202 169 181 211 199 208 205 186 180 205 200 148 184 198 192 219 165 
203 176 236 182 188 160 215 209 164 190 198 161 182 169 175 190 221 
171 161 191 213 203 209 202 193 189 177 207 203 183 176 194 195 175 
219 163 193 247 164 204 215 193 196 190 188 195 171 204 196 172 163 
170 160 160 161 187 150 188 209 148 193 210 168 191 183 163 208 174 
190 201 201 169 199 148 186 212 204 176 196 157 190 190 181 224 180 
212 188 169 204 179 192 238 179 190 199 203 181 193 141 193 159 214 
214 182 199 163 168 190 172 174 194 180 175 198 161 167 195 184 188 
194 201 156 187 214 