P2
11 11
255
0    0    0    0    0    0    0    0    0    0    0    
0    0    0    0    0    0    0    0    0    0    0
0    0    0    0    0    0    0    0    0    0    0
0    0    0    2    20   50   20   2    0    0    0    
0    0    0    20   70   100  70   20   0    0    0
0    0    0    50   100  200  100  50   0    0    0    
0    0    0    20   70   100  70   20   0    0    0
0    0    0    2    20   50   20   2    0    0    0    
0    0    0    0    0    0    0    0    0    0    0    
0    0    0    0    0    0    0    0    0    0    0
0    0    0    0    0    0    0    0    0    0    0
