P2
# CREATOR: XV Version 3.00  Rev: 3/30/93
106 106
255
255   0 255 255 255 255 255 255 255   0 255 255 255 255 255 255 255 
  0 255 255 255 255 255 255 255   0 255 255 255 255 255 255 255   0 
255 255 255 255 255 255 255   0 255 255 255 255 255 255 255   0 255 
255 255 255 255 255 255   0 255 255 255 255 255   0 255 255 255   0 
255 255 255   0 255 255 255   0 255 255 255   0 255 255 255   0 255 
255 255   0 255 255 255   0 255 255 255   0 255 255 255   0 255 255 
255   0 255 255 255 255 255 255 255 255 255 255 255 255 255 255 255 
255 255 255 255 255 255 255 255 255 255 255 255 255 255 255 255 255 
255 255 255 255 255 255 255 255 255 255 255 255 255 255 255 255 255 
255 255 255 255 255 255 255 255 255 255 255 255 255 255 255 255 255 
255 255 255 255 255 255 255 255 255 255 255 255 255 255 255 255 255 
255 255 255 255 255 255 255 255 255 255 255 255 255 255 255 255 255 
255 255 255 255 255 255 255 255 255 255 255 255 255   0 255 255 255 
255 255 255 255   0 255 255 255 255 255 255 255   0 255 255 255 255 
255 255 255   0 255 255 255 255 255 255 255   0 255 255 255 255 255 
255 255   0 255 255 255 255 255 255 255   0 255 255 255 255 255 255 
255   0 255 255 255   0 255 255 255   0 255 255 255   0 255 255 255 
  0 255 255 255   0 255 255 255   0 255 255 255   0 255 255 255   0 
255 255 255   0 255 255 255   0 255 255 255   0 255 255 255 255 255 
255 255 255 255 255 255 255 255 255 255 255 255 255 255 255 255 255 
255 255 255 255 255 255 255 255 255 255 255 255 255 255 255 255 255 
255 255 255 255 255 255 255 255 255 255 255 255 255 255 255 255 255 
255 255 255 255 255 255 255 255 255 255 255 255 255 255 255 255 255 
255 255 255 255 255 255 255 255 255 255 255 255 255 255 255 255 255 
255 255 255 255 255 255 255 255 255 255 255 255 255 255 255 255 255 
  0 255 255 255 255 255 255 255   0 255 255 255 255 255 255 255   0 
255 255 255 255 255 255 255   0 255 255 255 255 255 255 255   0 255 
255 255 255 255 255 255   0 255 255 255 255 255 255 255   0 255 255 
255 255 255 255 255   0 255   0 255 255 255   0 255 255 255   0 255 
255 255   0 255 255 255   0 255 255 255   0 255 255 255   0 255 255 
255   0 255 255 255   0 255 255 255   0 255 255 255   0 255 255 255 
  0 255 255 255 255 255 255 255 255 255 255 255 255 255 255 255 255 
255 255 255 255 255 255 255 255 255 255 255 255 255 255 255 255 255 
255 255 255 255 255 255 255 255 255 255 255 255 255 255 255 255 255 
255 255 255 255 255 255 255 255 255 255 255 255 255 255 255 255 255 
255 255 255 255 255 255 255 255 255 255 255 255 255 255 255 255 255 
255 255 255 255 255 255 255 255 255 255 255 255 255 255 255 255 255 
255 255 255 255 255 255 255 255 255 255 255 255   0 255 255 255 255 
255 255 255   0 255 255 255 255 255 255 255   0 255 255 255 255 255 
255 255   0 255 255 255 255 255 255 255   0 255 255 255 255 255 255 
255   0 255 255 255 255 255 255 255   0 255 255 255 255 255 255 255 
  0 255 255 255   0 255 255 255   0 255 255 255   0 255 255 255   0 
255 255 255   0 255 255 255   0 255 255 255   0 255 255 255   0 255 
255 255   0 255 255 255   0 255 255 255   0 255 255 255 255 255 255 
255 255 255 255 255 255 255 255 255 255 255 255 255 255 255 255 255 
255 255 255 255 255 255 255 255 255 255 255 255 255 255 255 255 255 
255 255 255 255 255 255 255 255 255 255 255 255 255 255 255 255 255 
255 255 255 255 255 255 255 255 255 255 255 255 255 255 255 255 255 
255 255 255 255 255 255 255 255 255 255 255 255 255 255 255 255 255 
255 255 255 255 255 255 255 255 255 255 255 255 255 255 255 255   0 
255 255 255 255 255 255 255   0 255 255 255 255 255 255 255   0 255 
255 255 255 255 255 255   0 255 255 255 255 255 255 255   0 255 255 
255 255 255 255 255   0 255 255 255 255 255 255 255   0 255 255 255 
255 255 255 255 255 255   0 255 255 255   0 255 255 255   0 255 255 
255   0 255 255 255   0 255 255 255   0 255 255 255   0 255 255 255 
  0 255 255 255   0 255 255 255   0 255 255 255   0 255 255 255   0 
255 255 255 255 255 255 255 255 255 255 255 255 255 255 255 255 255 
255 255 255 255 255 255 255 255 255 255 255 255 255 255 255 255 255 
255 255 255 255 255 255 255 255 255 255 255 255 255 255 255 255 255 
255 255 255 255 255 255 255 255 255 255 255 255 255 255 255 255 255 
255 255 255 255 255 255 255 255 255 255 255 255 255 255 255 255 255 
255 255 255 255 255 255 255 255 255 255 255 255 255 255 255 255 255 
255 255 255 255 255 255 255 255 255 255 255   0 255 255 255 255 255 
255 255   0 255 255 255 255 255 255 255   0 255 255 255 255 255 255 
255   0 255 255 255 255 255 255 255   0 255 255 255 255 255 255 255 
  0 255 255 255 255 255 255 255   0 255 255 255   0 255 255 255   0 
255 255 255   0 255 255 255   0 255 255 255   0 255 255 255   0 255 
255 255   0 255 255 255   0 255 255 255   0 255 255 255   0 255 255 
255   0 255 255 255   0 255 255 255   0 255 255 255 255 255 255 255 
255 255 255 255 255 255 255 255 255 255 255 255 255 255 255 255 255 
255 255 255 255 255 255 255 255 255 255 255 255 255 255 255 255 255 
255 255 255 255 255 255 255 255 255 255 255 255 255 255 255 255 255 
255 255 255 255 255 255 255 255 255 255 255 255 255 255 255 255 255 
255 255 255 255 255 255 255 255 255 255 255 255 255 255 255 255 255 
255 255 255 255 255 255 255 255 255 255 255 255 255 255 255   0 255 
255 255 255 255 255 255   0 255 255 255 255 255 255 255   0 255 255 
255 255 255 255 255   0 255 255 255 255 255 255 255   0 255 255 255 
255 255 255 255   0 255 255 255 255 255 255 255   0 255 255 255 255 
255   0 255 255 255   0 255 255 255   0 255 255 255   0 255 255 255 
  0 255 255 255   0 255 255 255   0 255 255 255   0 255 255 255   0 
255 255 255   0 255 255 255   0 255 255 255   0 255 255 255   0 255 
255 255 255 255 255 255 255 255 255 255 255 255 255 255 255 255 255 
255 255 255 255 255 255 255 255 255 255 255 255 255 255 255 255 255 
255 255 255 255 255 255 255 255 255 255 255 255 255 255 255 255 255 
255 255 255 255 255 255 255 255 255 255 255 255 255 255 255 255 255 
255 255 255 255 255 255 255 255 255 255 255 255 255 255 255 255 255 
255 255 255 255 255 255 255 255 255 255 255 255 255 255 255 255 255 
255 255 255 255 255 255 255 255 255 255   0 255 255 255 255 255 255 
255   0 255 255 255 255 255 255 255   0 255 255 255 255 255 255 255 
  0 255 255 255 255 255 255 255   0 255 255 255 255 255 255 255   0 
255 255 255 255 255 255 255 255 255 255 255   0 255 255 255   0 255 
255 255   0 255 255 255   0 255 255 255   0 255 255 255   0 255 255 
255   0 255 255 255   0 255 255 255   0 255 255 255   0 255 255 255 
  0 255 255 255   0 255 255 255   0 255 255 255 255 255 255 255 255 
255 255 255 255 255 255 255 255 255 255 255 255 255 255 255 255 255 
255 255 255 255 255 255 255 255 255 255 255 255 255 255 255 255 255 
255 255 255 255 255 255 255 255 255 255 255 255 255 255 255 255 255 
255 255 255 255 255 255 255 255 255 255 255 255 255 255 255 255 255 
255 255 255 255 255 255 255 255 255 255 255 255 255 255 255 255 255 
255 255 255 255 255 255 255 255 255 255 255 255 255 255   0 255 255 
255 255 255 255 255   0 255 255 255 255 255 255 255   0 255 255 255 
255 255 255 255   0 255 255 255 255 255 255 255   0 255 255 255 255 
255 255 255   0 255 255 255 255 255 255 255   0 255 255 255 255 255 
  0 255 255 255   0 255 255 255   0 255 255 255   0 255 255 255   0 
255 255 255   0 255 255 255   0 255 255 255   0 255 255 255   0 255 
255 255   0 255 255 255   0 255 255 255   0 255 255 255   0 255 255 
255 255 255 255 255 255 255 255 255 255 255 255 255 255 255 255 255 
255 255 255 255 255 255 255 255 255 255 255 255 255 255 255 255 255 
255 255 255 255 255 255 255 255 255 255 255 255 255 255 255 255 255 
255 255 255 255 255 255 255 255 255 255 255 255 255 255 255 255 255 
255 255 255 255 255 255 255 255 255 255 255 255 255 255 255 255 255 
255 255 255 255 255 255 255 255 255 255 255 255 255 255 255 255 255 
255 255 255 255 255 255 255 255 255   0 255 255 255 255 255 255 255 
  0 255 255 255 255 255 255 255   0 255 255 255 255 255 255 255   0 
255 255 255 255 255 255 255   0 255 255 255 255 255 255 255   0 255 
255 255 255 255 255 255   0 255 255 255   0 255 255 255   0 255 255 
255   0 255 255 255   0 255 255 255   0 255 255 255   0 255 255 255 
  0 255 255 255   0 255 255 255   0 255 255 255   0 255 255 255   0 
255 255 255   0 255 255 255   0 255 255 255 255 255 255 255 255 255 
255 255 255 255 255 255 255 255 255 255 255 255 255 255 255 255 255 
255 255 255 255 255 255 255 255 255 255 255 255 255 255 255 255 255 
255 255 255 255 255 255 255 255 255 255 255 255 255 255 255 255 255 
255 255 255 255 255 255 255 255 255 255 255 255 255 255 255 255 255 
255 255 255 255 255 255 255 255 255 255 255 255 255 255 255 255 255 
255 255 255 255 255 255 255 255 255 255 255 255 255   0 255 255 255 
255 255 255 255   0 255 255 255 255 255 255 255   0 255 255 255 255 
255 255 255   0 255 255 255 255 255 255 255   0 255 255 255 255 255 
255 255   0 255 255 255 255 255 255 255   0 255   0 255 255 255   0 
255 255 255   0 255 255 255   0 255 255 255   0 255 255 255   0 255 
255 255   0 255 255 255   0 255 255 255   0 255 255 255   0 255 255 
255   0 255 255 255   0 255 255 255   0 255 255 255   0 255 255 255 
255 255 255 255 255 255 255 255 255 255 255 255 255 255 255 255 255 
255 255 255 255 255 255 255 255 255 255 255 255 255 255 255 255 255 
255 255 255 255 255 255 255 255 255 255 255 255 255 255 255 255 255 
255 255 255 255 255 255 255 255 255 255 255 255 255 255 255 255 255 
255 255 255 255 255 255 255 255 255 255 255 255 255 255 255 255 255 
255 255 255 255 255 255 255 255 255 255 255 255 255 255 255 255 255 
255 255 255 255 255 255 255 255   0 255 255 255 255 255 255 255   0 
255 255 255 255 255 255 255   0 255 255 255 255 255 255 255   0 255 
255 255 255 255 255 255   0 255 255 255 255 255 255 255   0 255 255 
255 255 255 255 255   0 255 255 255   0 255 255 255   0 255 255 255 
  0 255 255 255   0 255 255 255   0 255 255 255   0 255 255 255   0 
255 255 255   0 255 255 255   0 255 255 255   0 255 255 255   0 255 
255 255   0 255 255 255   0 255 255 255 255 255 255 255 255 255 255 
255 255 255 255 255 255 255 255 255 255 255 255 255 255 255 255 255 
255 255 255 255 255 255 255 255 255 255 255 255 255 255 255 255 255 
255 255 255 255 255 255 255 255 255 255 255 255 255 255 255 255 255 
255 255 255 255 255 255 255 255 255 255 255 255 255 255 255 255 255 
255 255 255 255 255 255 255 255 255 255 255 255 255 255 255 255 255 
255 255 255 255 255 255 255 255 255 255 255 255   0 255 255 255 255 
255 255 255   0 255 255 255 255 255 255 255   0 255 255 255 255 255 
255 255   0 255 255 255 255 255 255 255   0 255 255 255 255 255 255 
255   0 255 255 255 255 255 255 255 255 255   0 255 255 255   0 255 
255 255   0 255 255 255   0 255 255 255   0 255 255 255   0 255 255 
255   0 255 255 255   0 255 255 255   0 255 255 255   0 255 255 255 
  0 255 255 255   0 255 255 255   0 255 255 255   0 255 255 255 255 
255 255 255 255 255 255 255 255 255 255 255 255 255 255 255 255 255 
255 255 255 255 255 255 255 255 255 255 255 255 255 255 255 255 255 
255 255 255 255 255 255 255 255 255 255 255 255 255 255 255 255 255 
255 255 255 255 255 255 255 255 255 255 255 255 255 255 255 255 255 
255 255 255 255 255 255 255 255 255 255 255 255 255 255 255 255 255 
255 255 255 255 255 255 255 255 255 255 255 255 255 255 255 255 255 
255 255 255 255 255 255 255   0 255 255 255 255 255 255 255   0 255 
255 255 255 255 255 255   0 255 255 255 255 255 255 255   0 255 255 
255 255 255 255 255   0 255 255 255 255 255 255 255   0 255 255 255 
  0 255 255 255   0 255 255 255   0 255 255 255   0 255 255 255   0 
255 255 255   0 255 255 255   0 255 255 255   0 255 255 255   0 255 
255 255   0 255 255 255   0 255 255 255   0 255 255 255   0 255 255 
255   0 255 255 255   0 255 255 255 255 255 255 255 255 255 255 255 
255 255 255 255 255 255 255 255 255 255 255 255 255 255 255 255 255 
255 255 255 255 255 255 255 255 255 255 255 255 255 255 255 255 255 
255 255 255 255 255 255 255 255 255 255 255 255 255 255 255 255 255 
255 255 255 255 255 255 255 255 255 255 255 255 255 255 255 255 255 
255 255 255 255 255 255 255 255 255 255 255 255 255 255 255 255 255 
255 255 255 255 255 255 255 255 255 255 255   0 255 255 255 255 255 
255 255   0 255 255 255 255 255 255 255   0 255 255 255 255 255 255 
255   0 255 255 255 255 255 255 255   0 255 255 255 255 255 255 255 
  0 255 255 255 255 255   0 255 255 255   0 255 255 255   0 255 255 
255   0 255 255 255   0 255 255 255   0 255 255 255   0 255 255 255 
  0 255 255 255   0 255 255 255   0 255 255 255   0 255 255 255   0 
255 255 255   0 255 255 255   0 255 255 255   0 255 255 255 255 255 
255 255 255 255 255 255 255 255 255 255 255 255 255 255 255 255 255 
255 255 255 255 255 255 255 255 255 255 255 255 255 255 255 255 255 
255 255 255 255 255 255 255 255 255 255 255 255 255 255 255 255 255 
255 255 255 255 255 255 255 255 255 255 255 255 255 255 255 255 255 
255 255 255 255 255 255 255 255 255 255 255 255 255 255 255 255 255 
255 255 255 255 255 255 255 255 255 255 255 255 255 255 255 255 255 
255 255 255 255 255 255   0 255 255 255 255 255 255 255   0 255 255 
255 255 255 255 255   0 255 255 255 255 255 255 255   0 255 255 255 
255 255 255 255   0 255 255 255 255 255 255 255 255 255 255 255   0 
255 255 255   0 255 255 255   0 255 255 255   0 255 255 255   0 255 
255 255   0 255 255 255   0 255 255 255   0 255 255 255   0 255 255 
255   0 255 255 255   0 255 255 255   0 255 255 255   0 255 255 255 
  0 255 255 255   0 255 255 255 255 255 255 255 255 255 255 255 255 
255 255 255 255 255 255 255 255 255 255 255 255 255 255 255 255 255 
255 255 255 255 255 255 255 255 255 255 255 255 255 255 255 255 255 
255 255 255 255 255 255 255 255 255 255 255 255 255 255 255 255 255 
255 255 255 255 255 255 255 255 255 255 255 255 255 255 255 255 255 
255 255 255 255 255 255 255 255 255 255 255 255 255 255 255 255 255 
255 255 255 255 255 255 255 255 255 255   0 255 255 255 255 255 255 
255   0 255 255 255 255 255 255 255   0 255 255 255 255 255 255 255 
  0 255 255 255 255 255 255 255   0 255 255 255 255 255 255 255   0 
255 255 255 255 255   0 255 255 255   0 255 255 255   0 255 255 255 
  0 255 255 255   0 255 255 255   0 255 255 255   0 255 255 255   0 
255 255 255   0 255 255 255   0 255 255 255   0 255 255 255   0 255 
255 255   0 255 255 255   0 255 255 255   0 255 255 255 255 255 255 
255 255 255 255 255 255 255 255 255 255 255 255 255 255 255 255 255 
255 255 255 255 255 255 255 255 255 255 255 255 255 255 255 255 255 
255 255 255 255 255 255 255 255 255 255 255 255 255 255 255 255 255 
255 255 255 255 255 255 255 255 255 255 255 255 255 255 255 255 255 
255 255 255 255 255 255 255 255 255 255 255 255 255 255 255 255 255 
255 255 255 255 255 255 255 255 255 255 255 255 255 255 255 255 255 
255 255 255 255 255   0 255 255 255 255 255 255 255   0 255 255 255 
255 255 255 255   0 255 255 255 255 255 255 255   0 255 255 255 255 
255 255 255   0 255 255 255 255 255 255 255   0 255 255 255   0 255 
255 255   0 255 255 255   0 255 255 255   0 255 255 255   0 255 255 
255   0 255 255 255   0 255 255 255   0 255 255 255   0 255 255 255 
  0 255 255 255   0 255 255 255   0 255 255 255   0 255 255 255   0 
255 255 255   0 255 255 255 255 255 255 255 255 255 255 255 255 255 
255 255 255 255 255 255 255 255 255 255 255 255 255 255 255 255 255 
255 255 255 255 255 255 255 255 255 255 255 255 255 255 255 255 255 
255 255 255 255 255 255 255 255 255 255 255 255 255 255 255 255 255 
255 255 255 255 255 255 255 255 255 255 255 255 255 255 255 255 255 
255 255 255 255 255 255 255 255 255 255 255 255 255 255 255 255 255 
255 255 255 255 255 255 255 255 255   0 255 255 255 255 255 255 255 
  0 255 255 255 255 255 255 255   0 255 255 255 255 255 255 255   0 
255 255 255 255 255 255 255   0 255 255 255 255 255 255 255   0 255 
255 255 255 255   0 255 255 255   0 255 255 255   0 255 255 255   0 
255 255 255   0 255 255 255   0 255 255 255   0 255 255 255   0 255 
255 255   0 255 255 255   0 255 255 255   0 255 255 255   0 255 255 
255   0 255 255 255   0 255 255 255   0 255 255 255 255 255 255 255 
255 255 255 255 255 255 255 255 255 255 255 255 255 255 255 255 255 
255 255 255 255 255 255 255 255 255 255 255 255 255 255 255 255 255 
255 255 255 255 255 255 255 255 255 255 255 255 255 255 255 255 255 
255 255 255 255 255 255 255 255 255 255 255 255 255 255 255 255 255 
255 255 255 255 255 255 255 255 255 255 255 255 255 255 255 255 255 
255 255 255 255 255 255 255 255 255 255 255 255 255 255 255 255 255 
255 255 255 255   0 255 255 255 255 255 255 255   0 255 255 255 255 
255 255 255   0 255 255 255 255 255 255 255   0 255 255 255 255 255 
255 255   0 255 255 255 255 255 255 255 255 255 255 255   0 255 255 
255   0 255 255 255   0 255 255 255   0 255 255 255   0 255 255 255 
  0 255 255 255   0 255 255 255   0 255 255 255   0 255 255 255   0 
255 255 255   0 255 255 255   0 255 255 255   0 255 255 255   0 255 
255 255   0 255 255 255 255 255 255 255 255 255 255 255 255 255 255 
255 255 255 255 255 255 255 255 255 255 255 255 255 255 255 255 255 
255 255 255 255 255 255 255 255 255 255 255 255 255 255 255 255 255 
255 255 255 255 255 255 255 255 255 255 255 255 255 255 255 255 255 
255 255 255 255 255 255 255 255 255 255 255 255 255 255 255 255 255 
255 255 255 255 255 255 255 255 255 255 255 255 255 255 255 255 255 
255 255 255 255 255 255 255 255   0 255 255 255 255 255 255 255   0 
255 255 255 255 255 255 255   0 255 255 255 255 255 255 255   0 255 
255 255 255 255 255 255   0 255 255 255 255 255 255 255   0 255 255 
255 255 255   0 255 255 255   0 255 255 255   0 255 255 255   0 255 
255 255   0 255 255 255   0 255 255 255   0 255 255 255   0 255 255 
255   0 255 255 255   0 255 255 255   0 255 255 255   0 255 255 255 
  0 255 255 255   0 255 255 255   0 255 255 255 255 255 255 255 255 
255 255 255 255 255 255 255 255 255 255 255 255 255 255 255 255 255 
255 255 255 255 255 255 255 255 255 255 255 255 255 255 255 255 255 
255 255 255 255 255 255 255 255 255 255 255 255 255 255 255 255 255 
255 255 255 255 255 255 255 255 255 255 255 255 255 255 255 255 255 
255 255 255 255 255 255 255 255 255 255 255 255 255 255 255 255 255 
255 255 255 255 255 255 255 255 255 255 255 255 255 255 255 255 255 
255 255 255   0 255 255 255 255 255 255 255   0 255 255 255 255 255 
255 255   0 255 255 255 255 255 255 255   0 255 255 255 255 255 255 
255   0 255 255 255 255 255 255 255   0 255 255 255   0 255 255 255 
  0 255 255 255   0 255 255 255   0 255 255 255   0 255 255 255   0 
255 255 255   0 255 255 255   0 255 255 255   0 255 255 255   0 255 
255 255   0 255 255 255   0 255 255 255   0 255 255 255   0 255 255 
255   0 255 255 255 255 255 255 255 255 255 255 255 255 255 255 255 
255 255 255 255 255 255 255 255 255 255 255 255 255 255 255 255 255 
255 255 255 255 255 255 255 255 255 255 255 255 255 255 255 255 255 
255 255 255 255 255 255 255 255 255 255 255 255 255 255 255 255 255 
255 255 255 255 255 255 255 255 255 255 255 255 255 255 255 255 255 
255 255 255 255 255 255 255 255 255 255 255 255 255 255 255 255 255 
255 255 255 255 255 255 255   0 255 255 255 255 255 255 255   0 255 
255 255 255 255 255 255   0 255 255 255 255 255 255 255   0 255 255 
255 255 255 255 255   0 255 255 255 255 255 255 255   0 255 255 255 
255 255 255 255 255 255   0 255 255 255   0 255 255 255   0 255 255 
255   0 255 255 255   0 255 255 255   0 255 255 255   0 255 255 255 
  0 255 255 255   0 255 255 255   0 255 255 255   0 255 255 255   0 
255 255 255   0 255 255 255   0 255 255 255 255 255 255 255 255 255 
255 255 255 255 255 255 255 255 255 255 255 255 255 255 255 255 255 
255 255 255 255 255 255 255 255 255 255 255 255 255 255 255 255 255 
255 255 255 255 255 255 255 255 255 255 255 255 255 255 255 255 255 
255 255 255 255 255 255 255 255 255 255 255 255 255 255 255 255 255 
255 255 255 255 255 255 255 255 255 255 255 255 255 255 255 255 255 
255 255 255 255 255 255 255 255 255 255 255 255 255 255 255 255 255 
255 255   0 255 255 255 255 255 255 255   0 255 255 255 255 255 255 
255   0 255 255 255 255 255 255 255   0 255 255 255 255 255 255 255 
  0 255 255 255 255 255 255 255   0 255 255 255   0 255 255 255   0 
255 255 255   0 255 255 255   0 255 255 255   0 255 255 255   0 255 
255 255   0 255 255 255   0 255 255 255   0 255 255 255   0 255 255 
255   0 255 255 255   0 255 255 255   0 255 255 255   0 255 255 255 
  0 255 255 255 255 255 255 255 255 255 255 255 255 255 255 255 255 
255 255 255 255 255 255 255 255 255 255 255 255 255 255 255 255 255 
255 255 255 255 255 255 255 255 255 255 255 255 255 255 255 255 255 
255 255 255 255 255 255 255 255 255 255 255 255 255 255 255 255 255 
255 255 255 255 255 255 255 255 255 255 255 255 255 255 255 255 255 
255 255 255 255 255 255 255 255 255 255 255 255 255 255 255 255 255 
255 255 255 255 255 255   0 255 255 255 255 255 255 255   0 255 255 
255 255 255 255 255   0 255 255 255 255 255 255 255   0 255 255 255 
255 255 255 255   0 255 255 255 255 255 255 255   0 255 255 255 255 
255 255 255 255 255   0 255 255 255   0 255 255 255   0 255 255 255 
  0 255 255 255   0 255 255 255   0 255 255 255   0 255 255 255   0 
255 255 255   0 255 255 255   0 255 255 255   0 255 255 255   0 255 
255 255   0 255 255 255   0 255 255 255 255 255 255 255 255 255 255 
255 255 255 255 255 255 255 255 255 255 255 255 255 255 255 255 255 
255 255 255 255 255 255 255 255 255 255 255 255 255 255 255 255 255 
255 255 255 255 255 255 255 255 255 255 255 255 255 255 255 255 255 
255 255 255 255 255 255 255 255 255 255 255 255 255 255 255 255 255 
255 255 255 255 255 255 255 255 255 255 255 255 255 255 255 255 255 
255 255 255 255 255 255 255 255 255 255 255 255 255 255 255 255 255 
255   0 255 255 255 255 255 255 255   0 255 255 255 255 255 255 255 
  0 255 255 255 255 255 255 255   0 255 255 255 255 255 255 255   0 
255 255 255 255 255 255 255   0 255 255 255 255 255 255 255   0 255 
255 255   0 255 255 255   0 255 255 255   0 255 255 255   0 255 255 
255   0 255 255 255   0 255 255 255   0 255 255 255   0 255 255 255 
  0 255 255 255   0 255 255 255   0 255 255 255   0 255 255 255   0 
255 255 255 255 255 255 255 255 255 255 255 255 255 255 255 255 255 
255 255 255 255 255 255 255 255 255 255 255 255 255 255 255 255 255 
255 255 255 255 255 255 255 255 255 255 255 255 255 255 255 255 255 
255 255 255 255 255 255 255 255 255 255 255 255 255 255 255 255 255 
255 255 255 255 255 255 255 255 255 255 255 255 255 255 255 255 255 
255 255 255 255 255 255 255 255 255 255 255 255 255 255 255 255 255 
255 255 255 255 255   0 255 255 255 255 255 255 255   0 255 255 255 
255 255 255 255   0 255 255 255 255 255 255 255   0 255 255 255 255 
255 255 255   0 255 255 255 255 255 255 255   0 255 255 255 255 255 
255 255   0 255   0 255 255 255   0 255 255 255   0 255 255 255   0 
255 255 255   0 255 255 255   0 255 255 255   0 255 255 255   0 255 
255 255   0 255 255 255   0 255 255 255   0 255 255 255   0 255 255 
255   0 255 255 255   0 255 255 255 255 255 255 255 255 255 255 255 
255 255 255 255 255 255 255 255 255 255 255 255 255 255 255 255 255 
255 255 255 255 255 255 255 255 255 255 255 255 255 255 255 255 255 
255 255 255 255 255 255 255 255 255 255 255 255 255 255 255 255 255 
255 255 255 255 255 255 255 255 255 255 255 255 255 255 255 255 255 
255 255 255 255 255 255 255 255 255 255 255 255 255 255 255 255 255 
255 255 255 255 255 255 255 255 255 255 255 255 255 255 255 255 255 
  0 255 255 255 255 255 255 255   0 255 255 255 255 255 255 255   0 
255 255 255 255 255 255 255   0 255 255 255 255 255 255 255   0 255 
255 255 255 255 255 255   0 255 255 255 255 255 255 255   0 255 255 
255   0 255 255 255   0 255 255 255   0 255 255 255   0 255 255 255 
  0 255 255 255   0 255 255 255   0 255 255 255   0 255 255 255   0 
255 255 255   0 255 255 255   0 255 255 255   0 255 255 255   0 255 
255 255 255 255 255 255 255 255 255 255 255 255 255 255 255 255 255 
255 255 255 255 255 255 255 255 255 255 255 255 255 255 255 255 255 
255 255 255 255 255 255 255 255 255 255 255 255 255 255 255 255 255 
255 255 255 255 255 255 255 255 255 255 255 255 255 255 255 255 255 
255 255 255 255 255 255 255 255 255 255 255 255 255 255 255 255 255 
255 255 255 255 255 255 255 255 255 255 255 255 255 255 255 255 255 
255 255 255 255   0 255 255 255 255 255 255 255   0 255 255 255 255 
255 255 255   0 255 255 255 255 255 255 255   0 255 255 255 255 255 
255 255   0 255 255 255 255 255 255 255   0 255 255 255 255 255 255 
255   0 255 255 255 255 255   0 255 255 255   0 255 255 255   0 255 
255 255   0 255 255 255   0 255 255 255   0 255 255 255   0 255 255 
255   0 255 255 255   0 255 255 255   0 255 255 255   0 255 255 255 
  0 255 255 255   0 255 255 255 255 255 255 255 255 255 255 255 255 
255 255 255 255 255 255 255 255 255 255 255 255 255 255 255 255 255 
255 255 255 255 255 255 255 255 255 255 255 255 255 255 255 255 255 
255 255 255 255 255 255 255 255 255 255 255 255 255 255 255 255 255 
255 255 255 255 255 255 255 255 255 255 255 255 255 255 255 255 255 
255 255 255 255 255 255 255 255 255 255 255 255 255 255 255 255 255 
255 255 255 255 255 255 255 255 255 255 255 255 255 255 255 255   0 
255 255 255 255 255 255 255   0 255 255 255 255 255 255 255   0 255 
255 255 255 255 255 255   0 255 255 255 255 255 255 255   0 255 255 
255 255 255 255 255   0 255 255 255 255 255 255 255 255 255 255 255 
  0 255 255 255   0 255 255 255   0 255 255 255   0 255 255 255   0 
255 255 255   0 255 255 255   0 255 255 255   0 255 255 255   0 255 
255 255   0 255 255 255   0 255 255 255   0 255 255 255   0 255 255 
255 255 255 255 255 255 255 255 255 255 255 255 255 255 255 255 255 
255 255 255 255 255 255 255 255 255 255 255 255 255 255 255 255 255 
255 255 255 255 255 255 255 255 255 255 255 255 255 255 255 255 255 
255 255 255 255 255 255 255 255 255 255 255 255 255 255 255 255 255 
255 255 255 255 255 255 255 255 255 255 255 255 255 255 255 255 255 
255 255 255 255 255 255 255 255 255 255 255 255 255 255 255 255 255 
255 255 255   0 255 255 255 255 255 255 255   0 255 255 255 255 255 
255 255   0 255 255 255 255 255 255 255   0 255 255 255 255 255 255 
255   0 255 255 255 255 255 255 255   0 255 255 255 255 255 255 255 
  0 255 255 255 255 255   0 255 255 255   0 255 255 255   0 255 255 
255   0 255 255 255   0 255 255 255   0 255 255 255   0 255 255 255 
  0 255 255 255   0 255 255 255   0 255 255 255   0 255 255 255   0 
255 255 255   0 255 255 255 255 255 255 255 255 255 255 255 255 255 
255 255 255 255 255 255 255 255 255 255 255 255 255 255 255 255 255 
255 255 255 255 255 255 255 255 255 255 255 255 255 255 255 255 255 
255 255 255 255 255 255 255 255 255 255 255 255 255 255 255 255 255 
255 255 255 255 255 255 255 255 255 255 255 255 255 255 255 255 255 
255 255 255 255 255 255 255 255 255 255 255 255 255 255 255 255 255 
255 255 255 255 255 255 255 255 255 255 255 255 255 255 255   0 255 
255 255 255 255 255 255   0 255 255 255 255 255 255 255   0 255 255 
255 255 255 255 255   0 255 255 255 255 255 255 255   0 255 255 255 
255 255 255 255   0 255 255 255 255 255 255 255   0 255 255 255   0 
255 255 255   0 255 255 255   0 255 255 255   0 255 255 255   0 255 
255 255   0 255 255 255   0 255 255 255   0 255 255 255   0 255 255 
255   0 255 255 255   0 255 255 255   0 255 255 255   0 255 255 255 
255 255 255 255 255 255 255 255 255 255 255 255 255 255 255 255 255 
255 255 255 255 255 255 255 255 255 255 255 255 255 255 255 255 255 
255 255 255 255 255 255 255 255 255 255 255 255 255 255 255 255 255 
255 255 255 255 255 255 255 255 255 255 255 255 255 255 255 255 255 
255 255 255 255 255 255 255 255 255 255 255 255 255 255 255 255 255 
255 255 255 255 255 255 255 255 255 255 255 255 255 255 255 255 255 
255 255   0 255 255 255 255 255 255 255   0 255 255 255 255 255 255 
255   0 255 255 255 255 255 255 255   0 255 255 255 255 255 255 255 
  0 255 255 255 255 255 255 255   0 255 255 255 255 255 255 255   0 
255 255 255 255 255 255 255 255 255   0 255 255 255   0 255 255 255 
  0 255 255 255   0 255 255 255   0 255 255 255   0 255 255 255   0 
255 255 255   0 255 255 255   0 255 255 255   0 255 255 255   0 255 
255 255   0 255 255 255 255 255 255 255 255 255 255 255 255 255 255 
255 255 255 255 255 255 255 255 255 255 255 255 255 255 255 255 255 
255 255 255 255 255 255 255 255 255 255 255 255 255 255 255 255 255 
255 255 255 255 255 255 255 255 255 255 255 255 255 255 255 255 255 
255 255 255 255 255 255 255 255 255 255 255 255 255 255 255 255 255 
255 255 255 255 255 255 255 255 255 255 255 255 255 255 255 255 255 
255 255 255 255 255 255 255 255 255 255 255 255 255 255   0 255 255 
255 255 255 255 255   0 255 255 255 255 255 255 255   0 255 255 255 
255 255 255 255   0 255 255 255 255 255 255 255   0 255 255 255 255 
255 255 255   0 255 255 255 255 255 255 255   0 255 255 255   0 255 
255 255   0 255 255 255   0 255 255 255   0 255 255 255   0 255 255 
255   0 255 255 255   0 255 255 255   0 255 255 255   0 255 255 255 
  0 255 255 255   0 255 255 255   0 255 255 255   0 255 255 255 255 
255 255 255 255 255 255 255 255 255 255 255 255 255 255 255 255 255 
255 255 255 255 255 255 255 255 255 255 255 255 255 255 255 255 255 
255 255 255 255 255 255 255 255 255 255 255 255 255 255 255 255 255 
255 255 255 255 255 255 255 255 255 255 255 255 255 255 255 255 255 
255 255 255 255 255 255 255 255 255 255 255 255 255 255 255 255 255 
255 255 255 255 255 255 255 255 255 255 255 255 255 255 255 255 255 
255   0 255 255 255 255 255 255 255   0 255 255 255 255 255 255 255 
  0 255 255 255 255 255 255 255   0 255 255 255 255 255 255 255   0 
255 255 255 255 255 255 255   0 255 255 255 255 255 255 255   0 255 
255 255 255 255 255 255 255 255   0 255 255 255   0 255 255 255   0 
255 255 255   0 255 255 255   0 255 255 255   0 255 255 255   0 255 
255 255   0 255 255 255   0 255 255 255   0 255 255 255   0 255 255 
255   0 255 255 255 255 255 255 255 255 255 255 255 255 255 255 255 
255 255 255 255 255 255 255 255 255 255 255 255 255 255 255 255 255 
255 255 255 255 255 255 255 255 255 255 255 255 255 255 255 255 255 
255 255 255 255 255 255 255 255 255 255 255 255 255 255 255 255 255 
255 255 255 255 255 255 255 255 255 255 255 255 255 255 255 255 255 
255 255 255 255 255 255 255 255 255 255 255 255 255 255 255 255 255 
255 255 255 255 255 255 255 255 255 255 255 255 255   0 255 255 255 
255 255 255 255   0 255 255 255 255 255 255 255   0 255 255 255 255 
255 255 255   0 255 255 255 255 255 255 255   0 255 255 255 255 255 
255 255   0 255 255 255 255 255 255 255   0 255 255 255 255 255 255 
255   0 255 255 255   0 255 255 255   0 255 255 255   0 255 255 255 
  0 255 255 255   0 255 255 255   0 255 255 255   0 255 255 255   0 
255 255 255   0 255 255 255   0 255 255 255   0 255 255 255 255 255 
255 255 255 255 255 255 255 255 255 255 255 255 255 255 255 255 255 
255 255 255 255 255 255 255 255 255 255 255 255 255 255 255 255 255 
255 255 255 255 255 255 255 255 255 255 255 255 255 255 255 255 255 
255 255 255 255 255 255 255 255 255 255 255 255 255 255 255 255 255 
255 255 255 255 255 255 255 255 255 255 255 255 255 255 255 255 255 
255 255 255 255 255 255 255 255 255 255 255 255 255 255 255 255 255 
  0 255 255 255 255 255 255 255   0 255 255 255 255 255 255 255   0 
255 255 255 255 255 255 255   0 255 255 255 255 255 255 255   0 255 
255 255 255 255 255 255   0 255 255 255 255 255 255 255   0 255 255 
255 255 255 255 255   0 255   0 255 255 255   0 255 255 255   0 255 
255 255   0 255 255 255   0 255 255 255   0 255 255 255   0 255 255 
255   0 255 255 255   0 255 255 255   0 255 255 255   0 255 255 255 
  0 255 255 255 255 255 255 255 255 255 255 255 255 255 255 255 255 
255 255 255 255 255 255 255 255 255 255 255 255 255 255 255 255 255 
255 255 255 255 255 255 255 255 255 255 255 255 255 255 255 255 255 
255 255 255 255 255 255 255 255 255 255 255 255 255 255 255 255 255 
255 255 255 255 255 255 255 255 255 255 255 255 255 255 255 255 255 
255 255 255 255 255 255 255 255 255 255 255 255 255 255 255 255 255 
255 255 255 255 255 255 255 255 255 255 255 255   0 255 255 255 255 
255 255 255   0 255 255 255 255 255 255 255   0 255 255 255 255 255 
255 255   0 255 255 255 255 255 255 255   0 255 255 255 255 255 255 
255   0 255 255 255 255 255 255 255   0 255 255 255 255 255 255 255 
  0 255 255 255   0 255 255 255   0 255 255 255   0 255 255 255   0 
255 255 255   0 255 255 255   0 255 255 255   0 255 255 255   0 255 
255 255   0 255 255 255   0 255 255 255   0 255 255 255 255 255 255 
255 255 255 255 255 255 255 255 255 255 255 255 255 255 255 255 255 
255 255 255 255 255 255 255 255 255 255 255 255 255 255 255 255 255 
255 255 255 255 255 255 255 255 255 255 255 255 255 255 255 255 255 
255 255 255 255 255 255 255 255 255 255 255 255 255 255 255 255 255 
255 255 255 255 255 255 255 255 255 255 255 255 255 255 255 255 255 
255 255 255 255 255 255 255 255 255 255 255 255 255 255 255 255   0 
255 255 255 255 255 255 255   0 255 255 255 255 255 255 255   0 255 
255 255 255 255 255 255   0 255 255 255 255 255 255 255   0 255 255 
255 255 255 255 255   0 255 255 255 255 255 255 255   0 255 255 255 
255 255 255 255   0 255 255 255 255 255   0 255 255 255   0 255 255 
255   0 255 255 255   0 255 255 255   0 255 255 255   0 255 255 255 
  0 255 255 255   0 255 255 255   0 255 255 255   0 255 255 255   0 
255 255 255 255 255 255 255 255 255 255 255 255 255 255 255 255 255 
255 255 255 255 255 255 255 255 255 255 255 255 255 255 255 255 255 
255 255 255 255 255 255 255 255 255 255 255 255 255 255 255 255 255 
255 255 255 255 255 255 255 255 255 255 255 255 255 255 255 255 255 
255 255 255 255 255 255 255 255 255 255 255 255 255 255 255 255 255 
255 255 255 255 255 255 255 255 255 255 255 255 255 255 255 255 255 
255 255 255 255 255 255 255 255 255 255 255   0 255 255 255 255 255 
255 255   0 255 255 255 255 255 255 255   0 255 255 255 255 255 255 
255   0 255 255 255 255 255 255 255   0 255 255 255 255 255 255 255 
  0 255 255 255 255 255 255 255   0 255 255 255 255 255 255 255 255 
255 255 255   0 255 255 255   0 255 255 255   0 255 255 255   0 255 
255 255   0 255 255 255   0 255 255 255   0 255 255 255   0 255 255 
255   0 255 255 255   0 255 255 255   0 255 255 255 255 255 255 255 
255 255 255 255 255 255 255 255 255 255 255 255 255 255 255 255 255 
255 255 255 255 255 255 255 255 255 255 255 255 255 255 255 255 255 
255 255 255 255 255 255 255 255 255 255 255 255 255 255 255 255 255 
255 255 255 255 255 255 255 255 255 255 255 255 255 255 255 255 255 
255 255 255 255 255 255 255 255 255 255 255 255 255 255 255 255 255 
255 255 255 255 255 255 255 255 255 255 255 255 255 255 255   0 255 
255 255 255 255 255 255   0 255 255 255 255 255 255 255   0 255 255 
255 255 255 255 255   0 255 255 255 255 255 255 255   0 255 255 255 
255 255 255 255   0 255 255 255 255 255 255 255   0 255 255 255 255 
255 255 255   0 255 255 255 255 255   0 255 255 255   0 255 255 255 
  0 255 255 255   0 255 255 255   0 255 255 255   0 255 255 255   0 
255 255 255   0 255 255 255   0 255 255 255   0 255 255 255   0 255 
255 255 255 255 255 255 255 255 255 255 255 255 255 255 255 255 255 
255 255 255 255 255 255 255 255 255 255 255 255 255 255 255 255 255 
255 255 255 255 255 255 255 255 255 255 255 255 255 255 255 255 255 
255 255 255 255 255 255 255 255 255 255 255 255 255 255 255 255 255 
255 255 255 255 255 255 255 255 255 255 255 255 255 255 255 255 255 
255 255 255 255 255 255 255 255 255 255 255 255 255 255 255 255 255 
255 255 255 255 255 255 255 255 255 255   0 255 255 255 255 255 255 
255   0 255 255 255 255 255 255 255   0 255 255 255 255 255 255 255 
  0 255 255 255 255 255 255 255   0 255 255 255 255 255 255 255   0 
255 255 255 255 255 255 255   0 255 255 255 255 255 255 255   0 255 
255 255   0 255 255 255   0 255 255 255   0 255 255 255   0 255 255 
255   0 255 255 255   0 255 255 255   0 255 255 255   0 255 255 255 
  0 255 255 255   0 255 255 255   0 255 255 255 255 255 255 255 255 
255 255 255 255 255 255 255 255 255 255 255 255 255 255 255 255 255 
255 255 255 255 255 255 255 255 255 255 255 255 255 255 255 255 255 
255 255 255 255 255 255 255 255 255 255 255 255 255 255 255 255 255 
255 255 255 255 255 255 255 255 255 255 255 255 255 255 255 255 255 
255 255 255 255 255 255 255 255 255 255 255 255 255 255 255 255 255 
255 255 255 255 255 255 255 255 255 255 255 255 255 255   0 255 255 
255 255 255 255 255   0 255 255 255 255 255 255 255   0 255 255 255 
255 255 255 255   0 255 255 255 255 255 255 255   0 255 255 255 255 
255 255 255   0 255 255 255 255 255 255 255   0 255 255 255 255 255 
255 255 255 255   0 255 255 255   0 255 255 255   0 255 255 255   0 
255 255 255   0 255 255 255   0 255 255 255   0 255 255 255   0 255 
255 255   0 255 255 255   0 255 255 255   0 255 255 255   0 255 255 
255 255 255 255 255 255 255 255 255 255 255 255 255 255 255 255 255 
255 255 255 255 255 255 255 255 255 255 255 255 255 255 255 255 255 
255 255 255 255 255 255 255 255 255 255 255 255 255 255 255 255 255 
255 255 255 255 255 255 255 255 255 255 255 255 255 255 255 255 255 
255 255 255 255 255 255 255 255 255 255 255 255 255 255 255 255 255 
255 255 255 255 255 255 255 255 255 255 255 255 255 255 255 255 255 
255 255 255 255 255 255 255 255 255   0 255 255 255 255 255 255 255 
  0 255 255 255 255 255 255 255   0 255 255 255 255 255 255 255   0 
255 255 255 255 255 255 255   0 255 255 255 255 255 255 255   0 255 
255 255 255 255 255 255   0 255 255 255   0 255 255 255   0 255 255 
255   0 255 255 255   0 255 255 255   0 255 255 255   0 255 255 255 
  0 255 255 255   0 255 255 255   0 255 255 255   0 255 255 255   0 
255 255 255   0 255 255 255   0 255 255 255 255 255 255 255 255 255 
255 255 255 255 255 255 255 255 255 255 255 255 255 255 255 255 255 
255 255 255 255 255 255 255 255 255 255 255 255 255 255 255 255 255 
255 255 255 255 255 255 255 255 255 255 255 255 255 255 255 255 255 
255 255 255 255 255 255 255 255 255 255 255 255 255 255 255 255 255 
255 255 255 255 255 255 255 255 255 255 255 255 255 255 255 255 255 
255 255 255 255 255 255 255 255 255 255 255 255 255   0 255 255 255 
255 255 255 255   0 255 255 255 255 255 255 255   0 255 255 255 255 
255 255 255   0 255 255 255 255 255 255 255   0 255 255 255 255 255 
255 255   0 255 255 255 255 255 255 255 255 255   0 255 255 255   0 
255 255 255   0 255 255 255   0 255 255 255   0 255 255 255   0 255 
255 255   0 255 255 255   0 255 255 255   0 255 255 255   0 255 255 
255   0 255 255 255   0 255 255 255   0 255 255 255   0 255 255 255 
255 255 255 255 255 255 255 255 255 255 255 255 255 255 255 255 255 
255 255 255 255 255 255 255 255 255 255 255 255 255 255 255 255 255 
255 255 255 255 255 255 255 255 255 255 255 255 255 255 255 255 255 
255 255 255 255 255 255 255 255 255 255 255 255 255 255 255 255 255 
255 255 255 255 255 255 255 255 255 255 255 255 255 255 255 255 255 
255 255 255 255 255 255 255 255 255 255 255 255 255 255 255 255 255 
255 255 255 255 255 255 255 255   0 255 255 255 255 255 255 255   0 
255 255 255 255 255 255 255   0 255 255 255 255 255 255 255   0 255 
255 255 255 255 255 255   0 255 255 255 255 255 255 255   0 255 255 
255   0 255 255 255   0 255 255 255   0 255 255 255   0 255 255 255 
  0 255 255 255   0 255 255 255   0 255 255 255   0 255 255 255   0 
255 255 255   0 255 255 255   0 255 255 255   0 255 255 255   0 255 
255 255   0 255 255 255   0 255 255 255 255 255 255 255 255 255 255 
255 255 255 255 255 255 255 255 255 255 255 255 255 255 255 255 255 
255 255 255 255 255 255 255 255 255 255 255 255 255 255 255 255 255 
255 255 255 255 255 255 255 255 255 255 255 255 255 255 255 255 255 
255 255 255 255 255 255 255 255 255 255 255 255 255 255 255 255 255 
255 255 255 255 255 255 255 255 255 255 255 255 255 255 255 255 255 
255 255 255 255 255 255 255 255 255 255 255 255   0 255 255 255 255 
255 255 255   0 255 255 255 255 255 255 255   0 255 255 255 255 255 
255 255   0 255 255 255 255 255 255 255   0 255 255 255 255 255 255 
255   0 255 255 255 255 255   0 255 255 255   0 255 255 255   0 255 
255 255   0 255 255 255   0 255 255 255   0 255 255 255   0 255 255 
255   0 255 255 255   0 255 255 255   0 255 255 255   0 255 255 255 
  0 255 255 255   0 255 255 255   0 255 255 255   0 255 255 255 255 
255 255 255 255 255 255 255 255 255 255 255 255 255 255 255 255 255 
255 255 255 255 255 255 255 255 255 255 255 255 255 255 255 255 255 
255 255 255 255 255 255 255 255 255 255 255 255 255 255 255 255 255 
255 255 255 255 255 255 255 255 255 255 255 255 255 255 255 255 255 
255 255 255 255 255 255 255 255 255 255 255 255 255 255 255 255 255 
255 255 255 255 255 255 255 255 255 255 255 255 255 255 255 255 255 
255 255 255 255 255 255 255   0 255 255 255 255 255 255 255   0 255 
255 255 255 255 255 255   0 255 255 255 255 255 255 255   0 255 255 
255 255 255 255 255   0 255 255 255 255 255 255 255   0 255 255 255 
  0 255 255 255   0 255 255 255   0 255 255 255   0 255 255 255   0 
255 255 255   0 255 255 255   0 255 255 255   0 255 255 255   0 255 
255 255   0 255 255 255   0 255 255 255   0 255 255 255   0 255 255 
255   0 255 255 255   0 255 255 255 255 255 255 255 255 255 255 255 
255 255 255 255 255 255 255 255 255 255 255 255 255 255 255 255 255 
255 255 255 255 255 255 255 255 255 255 255 255 255 255 255 255 255 
255 255 255 255 255 255 255 255 255 255 255 255 255 255 255 255 255 
255 255 255 255 255 255 255 255 255 255 255 255 255 255 255 255 255 
255 255 255 255 255 255 255 255 255 255 255 255 255 255 255 255 255 
255 255 255 255 255 255 255 255 255 255 255   0 255 255 255 255 255 
255 255   0 255 255 255 255 255 255 255   0 255 255 255 255 255 255 
255   0 255 255 255 255 255 255 255   0 255 255 255 255 255 255 255 
255 255   0 255 255 255   0 255 255 255   0 255 255 255   0 255 255 
255   0 255 255 255   0 255 255 255   0 255 255 255   0 255 255 255 
  0 255 255 255   0 255 255 255   0 255 255 255   0 255 255 255   0 
255 255 255   0 255 255 255   0 255 255 255   0 255 255 255 255 255 
255 255 255 255 255 255 255 255 255 255 255 255 255 255 255 255 255 
255 255 255 255 255 255 255 255 255 255 255 255 255 255 255 255 255 
255 255 255 255 255 255 255 255 255 255 255 255 255 255 255 255 255 
255 255 255 255 255 255 255 255 255 255 255 255 255 255 255 255 255 
255 255 255 255 255 255 255 255 255 255 255 255 255 255 255 255 255 
255 255 255 255 255 255 255 255 255 255 255 255 255 255 255 255 255 
255 255 255 255 255 255   0 255 255 255 255 255 255 255   0 255 255 
255 255 255 255 255   0 255 255 255 255 255 255 255   0 255 255 255 
255 255 255 255   0 255 255 255   0 255 255 255   0 255 255 255   0 
255 255 255   0 255 255 255   0 255 255 255   0 255 255 255   0 255 
255 255   0 255 255 255   0 255 255 255   0 255 255 255   0 255 255 
255   0 255 255 255   0 255 255 255   0 255 255 255   0 255 255 255 
  0 255 255 255   0 255 255 255 255 255 255 255 255 255 255 255 255 
255 255 255 255 255 255 255 255 255 255 255 255 255 255 255 255 255 
255 255 255 255 255 255 255 255 255 255 255 255 255 255 255 255 255 
255 255 255 255 255 255 255 255 255 255 255 255 255 255 255 255 255 
255 255 255 255 255 255 255 255 255 255 255 255 255 255 255 255 255 
255 255 255 255 255 255 255 255 255 255 255 255 255 255 255 255 255 
255 255 255 255 255 255 255 255 255 255   0 255 255 255 255 255 255 
255   0 255 255 255 255 255 255 255   0 255 255 255 255 255 255 255 
  0 255 255 255 255 255 255 255 255 255   0 255 255 255   0 255 255 
255   0 255 255 255   0 255 255 255   0 255 255 255   0 255 255 255 
  0 255 255 255   0 255 255 255   0 255 255 255   0 255 255 255   0 
255 255 255   0 255 255 255   0 255 255 255   0 255 255 255   0 255 
255 255   0 255 255 255   0 255 255 255   0 255 255 255 255 255 255 
255 255 255 255 255 255 255 255 255 255 255 255 255 255 255 255 255 
255 255 255 255 255 255 255 255 255 255 255 255 255 255 255 255 255 
255 255 255 255 255 255 255 255 255 255 255 255 255 255 255 255 255 
255 255 255 255 255 255 255 255 255 255 255 255 255 255 255 255 255 
255 255 255 255 255 255 255 255 255 255 255 255 255 255 255 255 255 
255 255 255 255 255 255 255 255 255 255 255 255 255 255 255 255 255 
255 255 255 255 255   0 255 255 255 255 255 255 255   0 255 255 255 
255 255 255 255   0 255 255 255 255 255 255 255   0 255 255 255   0 
255 255 255   0 255 255 255   0 255 255 255   0 255 255 255   0 255 
255 255   0 255 255 255   0 255 255 255   0 255 255 255   0 255 255 
255   0 255 255 255   0 255 255 255   0 255 255 255   0 255 255 255 
  0 255 255 255   0 255 255 255   0 255 255 255   0 255 255 255   0 
255 255 255   0 255 255 255 255 255 255 255 255 255 255 255 255 255 
255 255 255 255 255 255 255 255 255 255 255 255 255 255 255 255 255 
255 255 255 255 255 255 255 255 255 255 255 255 255 255 255 255 255 
255 255 255 255 255 255 255 255 255 255 255 255 255 255 255 255 255 
255 255 255 255 255 255 255 255 255 255 255 255 255 255 255 255 255 
255 255 255 255 255 255 255 255 255 255 255 255 255 255 255 255 255 
255 255 255 255 255 255 255 255 255   0 255 255 255 255 255 255 255 
  0 255 255 255 255 255 255 255   0 255 255 255 255 255 255 255   0 
255 255 255 255 255   0 255 255 255   0 255 255 255   0 255 255 255 
  0 255 255 255   0 255 255 255   0 255 255 255   0 255 255 255   0 
255 255 255   0 255 255 255   0 255 255 255   0 255 255 255   0 255 
255 255   0 255 255 255   0 255 255 255   0 255 255 255   0 255 255 
255   0 255 255 255   0 255 255 255   0 255 255 255 255 255 255 255 
255 255 255 255 255 255 255 255 255 255 255 255 255 255 255 255 255 
255 255 255 255 255 255 255 255 255 255 255 255 255 255 255 255 255 
255 255 255 255 255 255 255 255 255 255 255 255 255 255 255 255 255 
255 255 255 255 255 255 255 255 255 255 255 255 255 255 255 255 255 
255 255 255 255 255 255 255 255 255 255 255 255 255 255 255 255 255 
255 255 255 255 255 255 255 255 255 255 255 255 255 255 255 255 